<svg width="300" height="300" viewBox="0 0 300 300" fill="none" xmlns="http://www.w3.org/2000/svg">
<path d="M150 181.25V268.75M275 45V137.5H25V45C25 43.0109 25.7902 41.1032 27.1967 39.6967C28.6032 38.2902 30.5109 37.5 32.5 37.5H267.5C269.489 37.5 271.397 38.2902 272.803 39.6967C274.21 41.1032 275 43.0109 275 45V45ZM225 87.5H237.5H225ZM25 137.5L34.875 169.8C36.4383 174.921 39.6043 179.404 43.9068 182.59C48.2093 185.777 53.4211 187.498 58.775 187.5H75L25 137.5ZM275 137.5L265.125 169.8C263.562 174.921 260.396 179.404 256.093 182.59C251.791 185.777 246.579 187.498 241.225 187.5H225L275 137.5ZM118.75 181.25C118.75 181.25 118.75 268.75 75 268.75L118.75 181.25ZM181.25 181.25C181.25 181.25 181.25 268.75 225 268.75L181.25 181.25Z" stroke="#260101" stroke-width="20" stroke-linecap="round" stroke-linejoin="round"/>
</svg>
