<svg width="300" height="300" viewBox="0 0 300 300" fill="none" xmlns="http://www.w3.org/2000/svg">
<path d="M262.5 218.75V243.75M50 75C50 70.0272 51.9754 65.2581 55.4917 61.7417C59.0081 58.2254 63.7772 56.25 68.75 56.25H231.25C236.223 56.25 240.992 58.2254 244.508 61.7417C248.025 65.2581 250 70.0272 250 75V143.75H50V75ZM37.5 218.75V243.75V218.75Z" stroke="#260101" stroke-width="20" stroke-linecap="round" stroke-linejoin="round"/>
<path d="M181.25 112.5H118.75C113.777 112.5 109.008 114.475 105.492 117.992C101.975 121.508 100 126.277 100 131.25V143.75H200V131.25C200 126.277 198.025 121.508 194.508 117.992C190.992 114.475 186.223 112.5 181.25 112.5ZM25 162.5C25 157.527 26.9754 152.758 30.4917 149.242C34.0081 145.725 38.7772 143.75 43.75 143.75H256.25C261.223 143.75 265.992 145.725 269.508 149.242C273.025 152.758 275 157.527 275 162.5V218.75H25V162.5Z" stroke="#260101" stroke-width="20" stroke-linecap="round" stroke-linejoin="round"/>
</svg>
