<svg width="300" height="300" viewBox="0 0 300 300" fill="none" xmlns="http://www.w3.org/2000/svg">
<path d="M262.5 218.75V243.75M50 75C50 70.0272 51.9754 65.2581 55.4917 61.7417C59.0081 58.2254 63.7772 56.25 68.75 56.25H231.25C236.223 56.25 240.992 58.2254 244.508 61.7417C248.025 65.2581 250 70.0272 250 75V143.75H50V75ZM37.5 218.75V243.75V218.75Z" stroke="#D7CCC8" stroke-width="20" stroke-linecap="round" stroke-linejoin="round"/>
<path d="M125 112.5H87.5C82.5272 112.5 77.7581 114.475 74.2417 117.992C70.7254 121.508 68.75 126.277 68.75 131.25V143.75H143.75V131.25C143.75 126.277 141.775 121.508 138.258 117.992C134.742 114.475 129.973 112.5 125 112.5ZM212.5 112.5H175C170.027 112.5 165.258 114.475 161.742 117.992C158.225 121.508 156.25 126.277 156.25 131.25V143.75H231.25V131.25C231.25 126.277 229.275 121.508 225.758 117.992C222.242 114.475 217.473 112.5 212.5 112.5ZM25 162.5C25 157.527 26.9754 152.758 30.4917 149.242C34.0081 145.725 38.7772 143.75 43.75 143.75H256.25C261.223 143.75 265.992 145.725 269.508 149.242C273.025 152.758 275 157.527 275 162.5V218.75H25V162.5Z" stroke="#D7CCC8" stroke-width="20" stroke-linecap="round" stroke-linejoin="round"/>
</svg>
