<svg width="300" height="300" viewBox="0 0 300 300" fill="none" xmlns="http://www.w3.org/2000/svg">
<path d="M207 139.5C195 138 184.5 133.5 177 124.5C169.5 115.5 163.5 105 162 94.5C156 93 151.5 90 147 85.5C141 78 138 70.5 136.5 63L123 76.5L111 66C102 55.5 85.5 55.5 75 66L37.5 103.5C27 114 27 130.5 37.5 141L48 153L39 162C28.5 172.5 28.5 189 39 199.5L103.5 264C114 274.5 130.5 274.5 139.5 264L235.5 166.5C228 165 220.5 162 214.5 156C213 150 210 144 207 139.5V139.5ZM54 114L84 84C88.5 79.5 96 79.5 99 84L106.5 91.5L63 138L54 129C51 124.5 51 118.5 54 114V114ZM63 184.5C58.5 180 58.5 174 63 171L127.5 105C132 100.5 138 100.5 141 105C145.5 109.5 145.5 115.5 141 118.5L76.5 183C72 187.5 66 187.5 63 184.5V184.5ZM90 211.5C85.5 207 85.5 201 90 198L154.5 133.5C159 129 165 129 168 133.5C172.5 138 172.5 144 168 147L103.5 211.5C100.5 216 94.5 216 90 211.5V211.5ZM196.5 174L132 240C127.5 244.5 121.5 244.5 118.5 240C114 235.5 114 229.5 118.5 226.5L183 162C187.5 157.5 193.5 157.5 196.5 162C199.5 163.5 199.5 171 196.5 174V174ZM262.5 108C259.5 105 255 102 252 102C258 87 255 69 243 58.5C231 46.5 214.5 43.5 199.5 49.5C198 45 195 40.5 192 37.5C181.5 27 165 27 156 37.5C145.5 48 145.5 64.5 156 75C160.5 79.5 168 82.5 174 82.5C172.5 94.5 177 106.5 186 115.5C195 124.5 207 127.5 219 127.5C219 135 222 141 226.5 145.5C237 156 253.5 156 262.5 145.5C273 135 273 118.5 262.5 108V108Z" fill="#260101"/>
</svg>
