<svg width="330" height="330" viewBox="0 0 330 330" fill="none" xmlns="http://www.w3.org/2000/svg">
<path d="M15 277.5V99.375C15 76.9974 23.8895 55.5362 39.7129 39.7129C55.5362 23.8895 76.9974 15 99.375 15H230.625C241.705 15 252.677 17.1824 262.914 21.4227C273.151 25.6629 282.452 31.8779 290.287 39.7129C298.122 47.5478 304.337 56.8492 308.577 67.0861C312.818 77.3229 315 88.2947 315 99.375V230.625C315 241.705 312.818 252.677 308.577 262.914C304.337 273.151 298.122 282.452 290.287 290.287C282.452 298.122 273.151 304.337 262.914 308.577C252.677 312.818 241.705 315 230.625 315H52.5C42.5544 315 33.0161 311.049 25.9835 304.016C18.9509 296.984 15 287.446 15 277.5V277.5Z" stroke="#542525" stroke-width="30" stroke-linecap="round" stroke-linejoin="round"/>
<path d="M240 240H240.188M90 165H155.625C165.571 165 175.109 168.951 182.141 175.984C189.174 183.016 193.125 192.554 193.125 202.5C193.125 212.446 189.174 221.984 182.141 229.016C175.109 236.049 165.571 240 155.625 240H90V108.75C90 103.777 91.9754 99.0081 95.4918 95.4918C99.0081 91.9754 103.777 90 108.75 90H136.875C146.821 90 156.359 93.9509 163.391 100.984C170.424 108.016 174.375 117.554 174.375 127.5C174.375 137.446 170.424 146.984 163.391 154.016C156.359 161.049 146.821 165 136.875 165H108.75H90Z" stroke="#542525" stroke-width="30" stroke-linecap="round" stroke-linejoin="round"/>
</svg>
