<svg width="300" height="300" viewBox="0 0 300 300" fill="none" xmlns="http://www.w3.org/2000/svg">
<path d="M103.125 37.5V154.106C102.169 154.359 101.034 154.725 100.191 154.978C95.6531 156.375 92.5031 157.837 90.2344 159.375C89.1798 160.055 88.1966 160.841 87.3 161.719C86.5688 162.488 85.5469 164.062 85.5469 164.062L84.375 166.116V187.5H93.75V262.5H112.5V187.5H187.5V262.5H206.25V187.5H215.625V166.116L214.453 164.062C214.453 164.062 213.422 162.488 212.691 161.719C211.797 160.841 210.817 160.056 209.766 159.375C207.497 157.837 204.347 156.375 199.8 154.978C198.956 154.725 197.831 154.359 196.875 154.106V37.5H178.125V46.875H121.875V37.5H103.125ZM121.875 65.625H140.625V150.291C133.519 150.478 127.144 150.666 121.875 151.172V65.625ZM159.375 65.625H178.125V151.172C172.847 150.656 166.481 150.478 159.375 150.291V65.625Z" fill="#260101"/>
</svg>
