<svg width="512" height="512" viewBox="0 0 512 512" fill="none" xmlns="http://www.w3.org/2000/svg">
<path d="M384 64H128C111.026 64 94.7475 70.7428 82.7452 82.7452C70.7428 94.7475 64 111.026 64 128V384C64 400.974 70.7428 417.253 82.7452 429.255C94.7475 441.257 111.026 448 128 448H384C400.974 448 417.253 441.257 429.255 429.255C441.257 417.253 448 400.974 448 384V128C448 111.026 441.257 94.7475 429.255 82.7452C417.253 70.7428 400.974 64 384 64ZM405.333 384C405.333 389.658 403.086 395.084 399.085 399.085C395.084 403.086 389.658 405.333 384 405.333H128C122.342 405.333 116.916 403.086 112.915 399.085C108.914 395.084 106.667 389.658 106.667 384V128C106.667 122.342 108.914 116.916 112.915 112.915C116.916 108.914 122.342 106.667 128 106.667H384C389.658 106.667 395.084 108.914 399.085 112.915C403.086 116.916 405.333 122.342 405.333 128V384Z" fill="#210606"/>
<path d="M313.813 198.187C311.83 196.187 309.471 194.6 306.871 193.517C304.271 192.434 301.483 191.876 298.667 191.876C295.85 191.876 293.062 192.434 290.462 193.517C287.863 194.6 285.503 196.187 283.52 198.187L256 225.92L228.48 198.187C224.463 194.17 219.014 191.913 213.333 191.913C207.652 191.913 202.204 194.17 198.187 198.187C194.17 202.204 191.913 207.652 191.913 213.333C191.913 219.014 194.17 224.463 198.187 228.48L225.92 256L198.187 283.52C196.187 285.503 194.6 287.863 193.517 290.462C192.434 293.062 191.876 295.85 191.876 298.667C191.876 301.483 192.434 304.271 193.517 306.871C194.6 309.471 196.187 311.83 198.187 313.813C200.17 315.813 202.529 317.4 205.129 318.483C207.729 319.566 210.517 320.124 213.333 320.124C216.15 320.124 218.938 319.566 221.538 318.483C224.137 317.4 226.497 315.813 228.48 313.813L256 286.08L283.52 313.813C285.503 315.813 287.863 317.4 290.462 318.483C293.062 319.566 295.85 320.124 298.667 320.124C301.483 320.124 304.271 319.566 306.871 318.483C309.471 317.4 311.83 315.813 313.813 313.813C315.813 311.83 317.4 309.471 318.483 306.871C319.566 304.271 320.124 301.483 320.124 298.667C320.124 295.85 319.566 293.062 318.483 290.462C317.4 287.863 315.813 285.503 313.813 283.52L286.08 256L313.813 228.48C315.813 226.497 317.4 224.137 318.483 221.538C319.566 218.938 320.124 216.15 320.124 213.333C320.124 210.517 319.566 207.729 318.483 205.129C317.4 202.529 315.813 200.17 313.813 198.187V198.187Z" fill="#210606"/>
</svg>
