<svg width="12234" height="11980" viewBox="0 0 12234 11980" fill="none" xmlns="http://www.w3.org/2000/svg">
<path d="M3994.32 10438.1C2485.63 6933.16 2433.16 4896.25 3994.32 1113.68C6655.96 128.547 8229.72 190.757 11144.3 1113.68C12621.8 4896.3 12572.2 6933.11 11144.3 10438.1H3994.32Z" fill="#8E785C"/>
<ellipse cx="7573.14" cy="1273.44" rx="3655.47" ry="1273.44" fill="#8E785C"/>
<ellipse cx="7537.42" cy="10360" rx="3655.47" ry="1273.44" fill="#8E785C"/>
<ellipse cx="7538.73" cy="1334.54" rx="3284.85" ry="936.239" fill="#670F22"/>
<path d="M960.777 10981.9C-298.272 8056.92 -342.059 6357.06 960.777 3200.4C3181.99 2378.28 4495.34 2430.19 6927.62 3200.4C8160.67 6357.1 8119.22 8056.88 6927.62 10981.9H960.777Z" fill="#C9AE8E"/>
<ellipse cx="3947.41" cy="3333.72" rx="3050.59" ry="1062.72" fill="#C9AE8E"/>
<ellipse cx="3917.59" cy="10916.7" rx="3050.59" ry="1062.72" fill="#C9AE8E"/>
<ellipse cx="3918.69" cy="3384.71" rx="2741.3" ry="781.318" fill="#670F22"/>
</svg>
