<svg width="300" height="300" viewBox="0 0 300 300" fill="none" xmlns="http://www.w3.org/2000/svg">
<path d="M212.5 275C233.25 275 250 258.25 250 237.5C250 216.75 233.25 200 212.5 200C196.25 200 182.5 210.5 177.25 225H114.25L139.125 186.75C146.341 187.746 153.659 187.746 160.875 186.75L173.625 206.375C178.875 199.75 185.625 194.5 193.625 191.25L186.125 179.625C201.438 172.697 214.428 161.502 223.54 147.379C232.652 133.257 237.499 116.807 237.5 100H62.5C62.5 135.5 83.625 165.875 114 179.625L64.625 255.625C62.8278 258.396 62.2002 261.766 62.8794 264.998C63.5586 268.23 65.4894 271.062 68.25 272.875C71.0209 274.672 74.3906 275.3 77.6227 274.621C80.8549 273.941 83.6869 272.011 85.5 269.25L98 249.875H177.25C182.5 264.5 196.25 275 212.5 275ZM212.5 225C219.375 225 225 230.625 225 237.5C225 244.375 219.375 250 212.5 250C205.625 250 200 244.375 200 237.5C200 230.625 205.625 225 212.5 225ZM92.75 125H207.25C197.625 147 175.5 162.5 150 162.5C124.5 162.5 102.375 147 92.75 125V125ZM117.625 87.5H130.125C132 73.125 133 67 119 50.5C113.75 44.25 110.5 40.875 113.25 25H100.875C98.25 38.875 101.25 50.625 112 62C114.75 65 121.875 70.375 117.625 87.5V87.5ZM148.625 87.5H161.125C163 73.125 164 67 150 50.5C144.75 44.25 141.5 40.75 144.25 25H131.875C129.25 38.875 132.25 50.625 143 62C145.875 65 153 70.375 148.625 87.5V87.5ZM180.125 87.5H192.625C194.5 73.125 195.5 67 181.5 50.5C176.25 44.25 173 40.875 175.75 25H163.375C160.75 38.875 163.75 50.625 174.5 62C177.25 65 184.375 70.375 180.125 87.5V87.5Z" fill="#260101"/>
</svg>
