<svg width="300" height="300" viewBox="0 0 300 300" fill="none" xmlns="http://www.w3.org/2000/svg">
<path d="M107.772 269.244C108.851 270.414 109.425 271.963 109.369 273.554C109.313 275.145 108.631 276.649 107.472 277.74L94.44 289.926C93.2763 291.007 91.7311 291.582 90.1437 291.525C88.5563 291.467 87.0566 290.782 85.974 289.62L10.08 207.828C9.0015 206.657 8.42865 205.108 8.48595 203.517C8.54325 201.926 9.22606 200.422 10.386 199.332L23.436 187.164C24.0118 186.628 24.6877 186.211 25.4249 185.936C26.1621 185.661 26.9462 185.534 27.7324 185.563C28.5186 185.591 29.2916 185.774 30.007 186.101C30.7224 186.429 31.3664 186.894 31.902 187.47L107.772 269.244ZM204.612 115.344C205.69 116.515 206.263 118.064 206.206 119.655C206.149 121.246 205.466 122.75 204.306 123.84L122.286 200.46C121.122 201.541 119.577 202.116 117.99 202.059C116.402 202.001 114.903 201.316 113.82 200.154L94.242 179.028C93.1635 177.857 92.5906 176.308 92.6479 174.717C92.7052 173.126 93.3881 171.622 94.548 170.532L176.55 93.912C177.125 93.3761 177.801 92.9589 178.537 92.6842C179.274 92.4095 180.058 92.2828 180.843 92.3112C181.629 92.3396 182.402 92.5227 183.117 92.8499C183.831 93.177 184.475 93.642 185.01 94.218L204.612 115.344V115.344ZM135.678 243.162C137.922 245.58 137.784 249.402 135.372 251.658L122.322 263.838C121.746 264.374 121.07 264.791 120.333 265.066C119.596 265.341 118.812 265.468 118.026 265.439C117.239 265.411 116.466 265.228 115.751 264.901C115.036 264.573 114.392 264.108 113.856 263.532L38.004 181.74C36.9247 180.57 36.3508 179.021 36.407 177.43C36.4632 175.839 37.1449 174.335 38.304 173.244L51.33 161.07C52.4937 159.989 54.0389 159.414 55.6263 159.471C57.2137 159.529 58.7134 160.214 59.796 161.376L135.678 243.162ZM262.056 118.278C263.134 119.45 263.706 120.999 263.647 122.59C263.589 124.181 262.905 125.685 261.744 126.774L248.7 138.954C247.536 140.036 245.99 140.613 244.402 140.556C242.814 140.5 241.312 139.816 240.228 138.654L164.364 56.88C163.283 55.7106 162.708 54.1616 162.765 52.5702C162.821 50.9789 163.503 49.4742 164.664 48.384L177.744 36.174C178.319 35.6381 178.995 35.2209 179.731 34.9462C180.468 34.6715 181.252 34.5448 182.037 34.5732C182.823 34.6016 183.596 34.7847 184.311 35.1118C185.025 35.439 185.669 35.9039 186.204 36.48L262.056 118.278ZM289.92 92.238C290.997 93.4106 291.569 94.9605 291.512 96.5518C291.455 98.1432 290.773 99.6479 289.614 100.74L276.594 112.914C276.019 113.45 275.344 113.868 274.608 114.143C273.871 114.418 273.088 114.546 272.302 114.518C271.516 114.49 270.744 114.307 270.028 113.981C269.313 113.654 268.669 113.19 268.134 112.614L192.282 30.804C191.204 29.6322 190.631 28.0828 190.687 26.4914C190.743 24.9001 191.424 23.3949 192.582 22.302L205.614 10.104C206.188 9.56718 206.862 9.14901 207.599 8.87346C208.335 8.59791 209.118 8.47041 209.903 8.49828C210.689 8.52616 211.461 8.70885 212.176 9.03588C212.89 9.36291 213.533 9.82784 214.068 10.404L289.92 92.238V92.238Z" fill="#260101"/>
</svg>
