<svg width="300" height="300" viewBox="0 0 300 300" fill="none" xmlns="http://www.w3.org/2000/svg">
<path d="M150 0C109.223 0 104.141 0.1969 88.1829 0.871984C72.159 1.65958 61.3202 4.14427 51.7565 7.85723C41.7471 11.636 32.6822 17.5523 25.1938 25.1938C17.531 32.6647 11.6114 41.7346 7.85723 51.7565C4.14427 61.3202 1.65958 72.159 0.871984 88.1829C0.150019 104.151 0 109.223 0 150C0 190.777 0.1969 195.859 0.871984 211.817C1.65958 227.794 4.14427 238.68 7.85723 248.244C11.636 258.253 17.5523 267.318 25.1938 274.806C32.6647 282.469 41.7346 288.389 51.7565 292.143C61.3202 295.809 72.2059 298.34 88.1829 299.128C104.151 299.85 109.223 300 150 300C190.777 300 195.859 299.803 211.817 299.128C227.794 298.34 238.68 295.8 248.244 292.143C258.253 288.364 267.318 282.448 274.806 274.806C282.479 267.343 288.4 258.271 292.143 248.244C295.809 238.68 298.34 227.794 299.128 211.817C299.85 195.849 300 190.777 300 150C300 109.223 299.803 104.141 299.128 88.1829C298.34 72.2059 295.799 61.2639 292.143 51.7565C288.364 41.7471 282.448 32.6822 274.806 25.1938C267.343 17.5212 258.271 11.6 248.244 7.85723C238.68 4.14427 227.794 1.65958 211.817 0.871984C195.849 0.150019 190.777 0 150 0ZM150 27.0034C190.046 27.0034 194.827 27.2003 210.654 27.8754C225.253 28.5598 233.204 30.9976 238.483 33.0604C245.009 35.4693 250.916 39.3035 255.773 44.2837C260.744 49.1201 264.564 55.0133 266.949 61.5264C269.012 66.8052 271.45 74.7562 272.134 89.3549C272.809 105.182 273.006 109.973 273.006 150.009C273.006 190.046 272.809 194.837 272.078 210.664C271.29 225.263 268.852 233.214 266.799 238.492C263.958 245.534 260.789 250.456 255.557 255.782C250.684 260.731 244.781 264.547 238.267 266.958C233.054 269.021 224.991 271.459 210.336 272.143C194.424 272.818 189.736 273.015 149.587 273.015C109.439 273.015 104.76 272.818 88.8299 272.087C74.2312 271.3 66.177 268.862 60.8982 266.808C53.7724 263.967 48.8874 260.798 43.6555 255.566C38.3767 250.288 35.02 245.262 32.4322 238.277C30.3319 233.064 27.9316 225 27.1534 210.345C26.619 194.621 26.3658 189.746 26.3658 149.784C26.3658 109.842 26.619 104.957 27.1534 89.0361C27.9316 74.3812 30.3319 66.3364 32.4322 61.1045C35.02 53.9693 38.3861 49.0936 43.6555 43.8149C48.878 38.5923 53.7724 35.2169 60.8982 32.5728C66.177 30.5194 74.0343 28.0816 88.6892 27.3503C104.601 26.7784 109.289 26.5721 149.381 26.5721L150 27.0034ZM150 73.0123C139.886 73.0086 129.871 74.9979 120.527 78.8665C111.182 82.7351 102.691 88.4073 95.5399 95.5587C88.3885 102.71 82.7164 111.201 78.8477 120.545C74.9791 129.89 72.9898 139.905 72.9935 150.019C72.9898 160.132 74.9791 170.148 78.8477 179.492C82.7164 188.837 88.3885 197.327 95.5399 204.479C102.691 211.63 111.182 217.302 120.527 221.171C129.871 225.04 139.886 227.029 150 227.025C160.114 227.029 170.129 225.04 179.473 221.171C188.818 217.302 197.309 211.63 204.46 204.479C211.612 197.327 217.284 188.837 221.152 179.492C225.021 170.148 227.01 160.132 227.007 150.019C227.01 139.905 225.021 129.89 221.152 120.545C217.284 111.201 211.612 102.71 204.46 95.5587C197.309 88.4073 188.818 82.7351 179.473 78.8665C170.129 74.9979 160.114 73.0086 150 73.0123ZM150 200.022C122.359 200.022 99.9969 177.66 99.9969 150.019C99.9969 122.378 122.359 100.016 150 100.016C177.641 100.016 200.003 122.378 200.003 150.019C200.003 177.66 177.641 200.022 150 200.022ZM248.112 69.9369C248.107 74.7156 246.205 79.2969 242.825 82.6742C239.444 86.0514 234.861 87.9485 230.082 87.9485C227.719 87.9485 225.379 87.4831 223.196 86.5789C221.013 85.6746 219.03 84.3493 217.359 82.6785C215.688 81.0077 214.363 79.0242 213.459 76.8412C212.554 74.6582 212.089 72.3185 212.089 69.9556C212.089 67.5928 212.554 65.253 213.459 63.0701C214.363 60.8871 215.688 58.9035 217.359 57.2327C219.03 55.5619 221.013 54.2366 223.196 53.3324C225.379 52.4281 227.719 51.9627 230.082 51.9627C239.993 51.9627 248.112 60.0263 248.112 69.9369Z" fill="#D7CCC8"/>
</svg>
