<svg width="512" height="512" viewBox="0 0 512 512" fill="none" xmlns="http://www.w3.org/2000/svg">
<path fill-rule="evenodd" clip-rule="evenodd" d="M480 64C480 55.5131 476.629 47.3737 470.627 41.3726C464.626 35.3714 456.487 32 448 32H64C55.5131 32 47.3737 35.3714 41.3726 41.3726C35.3714 47.3737 32 55.5131 32 64V448C32 456.487 35.3714 464.626 41.3726 470.627C47.3737 476.629 55.5131 480 64 480H448C456.487 480 464.626 476.629 470.627 470.627C476.629 464.626 480 456.487 480 448V64ZM0 64C0 47.0261 6.74284 30.7475 18.7452 18.7452C30.7475 6.74284 47.0261 0 64 0L448 0C464.974 0 481.252 6.74284 493.255 18.7452C505.257 30.7475 512 47.0261 512 64V448C512 464.974 505.257 481.252 493.255 493.255C481.252 505.257 464.974 512 448 512H64C47.0261 512 30.7475 505.257 18.7452 493.255C6.74284 481.252 0 464.974 0 448V64ZM368 240C372.243 240 376.313 241.686 379.314 244.686C382.314 247.687 384 251.757 384 256C384 260.243 382.314 264.313 379.314 267.314C376.313 270.314 372.243 272 368 272H182.624L251.328 340.672C252.816 342.16 253.996 343.926 254.801 345.869C255.606 347.813 256.02 349.896 256.02 352C256.02 354.104 255.606 356.187 254.801 358.131C253.996 360.074 252.816 361.84 251.328 363.328C249.84 364.816 248.074 365.996 246.131 366.801C244.187 367.606 242.104 368.02 240 368.02C237.896 368.02 235.813 367.606 233.869 366.801C231.926 365.996 230.16 364.816 228.672 363.328L132.672 267.328C131.182 265.842 130 264.076 129.193 262.132C128.387 260.188 127.971 258.105 127.971 256C127.971 253.895 128.387 251.812 129.193 249.868C130 247.924 131.182 246.158 132.672 244.672L228.672 148.672C231.676 145.668 235.751 143.98 240 143.98C244.249 143.98 248.324 145.668 251.328 148.672C254.332 151.676 256.02 155.751 256.02 160C256.02 164.249 254.332 168.324 251.328 171.328L182.624 240H368Z" fill="#210606"/>
</svg>
