<svg width="300" height="300" viewBox="0 0 300 300" fill="none" xmlns="http://www.w3.org/2000/svg">
<path d="M270 110.595V217.5C270 227.446 266.049 236.984 259.017 244.017C251.984 251.049 242.446 255 232.5 255H67.5C57.5544 255 48.0161 251.049 40.9835 244.017C33.9509 236.984 30 227.446 30 217.5V110.595L146.19 178.965C147.344 179.646 148.66 180.005 150 180.005C151.34 180.005 152.656 179.646 153.81 178.965L270 110.595ZM232.5 60C241.727 59.9985 250.631 63.3991 257.508 69.5511C264.385 75.7031 268.753 84.1746 269.775 93.345L150 163.8L30.225 93.345C31.2474 84.1746 35.6149 75.7031 42.4919 69.5511C49.369 63.3991 58.2728 59.9985 67.5 60H232.5Z" fill="#402525"/>
</svg>
