<svg width="300" height="300" viewBox="0 0 300 300" fill="none" xmlns="http://www.w3.org/2000/svg">
<path d="M50 37.5H250C253.315 37.5 256.495 38.817 258.839 41.1612C261.183 43.5054 262.5 46.6848 262.5 50V250C262.5 253.315 261.183 256.495 258.839 258.839C256.495 261.183 253.315 262.5 250 262.5H50C46.6848 262.5 43.5054 261.183 41.1612 258.839C38.817 256.495 37.5 253.315 37.5 250V50C37.5 46.6848 38.817 43.5054 41.1612 41.1612C43.5054 38.817 46.6848 37.5 50 37.5ZM62.5 62.5V237.5H237.5V62.5H62.5ZM112.5 87.5H156.25C167.853 87.5 178.981 92.1094 187.186 100.314C195.391 108.519 200 119.647 200 131.25C200 142.853 195.391 153.981 187.186 162.186C178.981 170.391 167.853 175 156.25 175H137.5V212.5H112.5V87.5ZM137.5 112.5V150H156.25C161.223 150 165.992 148.025 169.508 144.508C173.025 140.992 175 136.223 175 131.25C175 126.277 173.025 121.508 169.508 117.992C165.992 114.475 161.223 112.5 156.25 112.5H137.5Z" fill="#D7CCC8"/>
</svg>
