<svg width="300" height="300" viewBox="0 0 300 300" fill="none" xmlns="http://www.w3.org/2000/svg">
<path d="M190.594 201.375L211.594 180.375C214.422 177.582 218.001 175.67 221.895 174.871C225.789 174.072 229.831 174.421 233.531 175.875L259.125 186.094C262.864 187.611 266.07 190.202 268.339 193.538C270.608 196.875 271.838 200.809 271.875 204.844V251.719C271.853 254.464 271.276 257.176 270.179 259.691C269.081 262.207 267.486 264.475 265.489 266.358C263.492 268.242 261.134 269.701 258.558 270.649C255.983 271.597 253.241 272.014 250.5 271.875C71.1562 260.719 34.9687 108.844 28.125 50.7187C27.8073 47.8644 28.0976 44.9751 28.9767 42.241C29.8558 39.5069 31.3039 36.9899 33.2256 34.8557C35.1474 32.7214 37.4992 31.0182 40.1265 29.8581C42.7537 28.698 45.5968 28.1074 48.4687 28.125H93.75C97.7907 28.137 101.735 29.3575 105.077 31.6297C108.418 33.9018 111.003 37.1216 112.5 40.875L122.719 66.4688C124.221 70.1538 124.604 74.1998 123.821 78.1014C123.037 82.0029 121.121 85.5872 118.312 88.4063L97.3125 109.406C97.3125 109.406 109.406 191.25 190.594 201.375Z" fill="#402525"/>
</svg>
