<svg width="300" height="300" viewBox="0 0 300 300" fill="none" xmlns="http://www.w3.org/2000/svg">
<path d="M41.236 184.846C58.546 184.846 72.55 170.452 72.55 152.638C72.55 134.92 58.546 120.52 41.236 120.52C23.998 120.52 10 134.92 10 152.638C10 170.446 23.998 184.846 41.236 184.846ZM216.616 240.142C216.954 239.896 217.337 239.719 217.743 239.621C218.15 239.523 218.572 239.506 218.985 239.571C219.397 239.636 219.794 239.782 220.15 240.001C220.506 240.219 220.816 240.506 221.062 240.844L226.852 249.076C227.326 249.792 227.517 250.659 227.388 251.508C227.259 252.357 226.82 253.128 226.156 253.672L183.676 285.394C182.989 285.885 182.136 286.086 181.302 285.953C180.468 285.821 179.719 285.366 179.218 284.686L173.446 276.454C172.972 275.74 172.78 274.875 172.909 274.028C173.038 273.18 173.477 272.411 174.142 271.87L216.616 240.142V240.142ZM168.598 199.24L151.75 168.862L142.906 175.504L159.754 206.044L168.598 199.24ZM129.292 128.278L63.772 10L51.238 10.084L120.37 135.004L129.292 128.278ZM190.978 190.858C194.68 188.092 203.152 184 208 184H268C279.844 184 286 195.916 286 208.024C286 220.204 279.844 226 268 226H214L148.984 277.012C126.136 293.926 112.288 275.344 112.288 275.344L61.39 222.97C52.852 212.452 54.7 192.436 64.936 183.574L135.37 131.992C142.366 125.992 152.752 126.934 158.68 134.05C164.536 141.25 163.612 152.014 156.604 158.026L111.514 191.968L143.908 224.872L190.978 190.858V190.858Z" fill="#260101"/>
</svg>
