<svg width="300" height="300" viewBox="0 0 300 300" fill="none" xmlns="http://www.w3.org/2000/svg">
<path opacity="0.3" d="M275 262.5C261.125 262.5 253.375 257.875 247.75 254.5C243.125 251.75 240.25 250 233.375 250C226.375 250 223.625 251.625 219 254.5C213.25 257.875 205.625 262.5 191.75 262.5C177.875 262.5 170.125 257.875 164.5 254.5C159.875 251.75 157 250 150.125 250C143.125 250 140.375 251.625 135.75 254.5C130 257.875 122.25 262.5 108.375 262.5C94.5 262.5 86.75 257.875 81.125 254.5C76.5 251.625 73.625 250 66.75 250C59.875 250 57 251.625 52.375 254.5C46.625 257.875 38.875 262.5 25 262.5V237.5C32 237.5 34.75 235.875 39.375 233C45.125 229.625 52.875 225 66.75 225C80.625 225 88.375 229.625 94 233C98.625 235.875 101.375 237.5 108.375 237.5C115.375 237.5 118.125 235.875 122.75 233C128.5 229.625 136.25 225 150.125 225C164 225 171.75 229.625 177.375 233C182 235.75 184.875 237.5 191.75 237.5C198.625 237.5 201.5 235.875 206.125 233C211.75 229.625 219.5 225 233.375 225C247.25 225 255 229.625 260.625 233C265.25 235.875 268 237.5 275 237.5V262.5ZM275 206.25C261.125 206.25 253.375 201.625 247.75 198.25C243.125 195.5 240.25 193.75 233.375 193.75C226.375 193.75 223.625 195.375 219 198.25C213.375 201.625 205.625 206.25 191.75 206.25C177.875 206.25 170.125 201.625 164.5 198.25C159.875 195.5 157 193.75 150.125 193.75C143.125 193.75 140.375 195.375 135.75 198.25C130.125 201.625 122.375 206.25 108.5 206.25C94.625 206.25 86.875 201.625 81.25 198.25C76.625 195.5 73.75 193.75 66.875 193.75C60 193.75 57.125 195.375 52.5 198.25C46.625 201.625 38.875 206.25 25 206.25V181.25C32 181.25 34.75 179.625 39.375 176.75C45 173.375 52.75 168.75 66.625 168.75C80.5 168.75 88.25 173.375 93.875 176.75C98.5 179.5 101.375 181.25 108.25 181.25C115.25 181.25 118 179.625 122.625 176.75C128.25 173.375 136 168.75 149.875 168.75C163.75 168.75 171.5 173.375 177.125 176.75C181.75 179.5 184.625 181.25 191.5 181.25C198.375 181.25 201.25 179.625 205.875 176.75C211.5 173.375 219.25 168.75 233.125 168.75C247 168.75 254.75 173.375 260.375 176.75C265 179.5 267.875 181.25 274.75 181.25V206.25H275ZM108.375 150C115.375 150 118.125 148.375 122.75 145.5C128.5 142.125 136.25 137.5 150.125 137.5C164 137.5 171.75 142.125 177.375 145.5C182 148.25 184.875 150 191.75 150C198.625 150 201.5 148.375 206.125 145.5C207.625 144.625 209.375 143.625 211.25 142.625L131 62.5C111.625 43.125 93.75 37.375 62.5 37.5V68.75C85.25 68.625 98.625 73.625 112.5 87.5L125 100L84.375 140.625C88.25 142.125 91.375 144 94 145.5C98.625 148.375 101.375 150 108.375 150Z" fill="#260101"/>
<path opacity="0.3" d="M206.25 100C223.509 100 237.5 86.0089 237.5 68.75C237.5 51.4911 223.509 37.5 206.25 37.5C188.991 37.5 175 51.4911 175 68.75C175 86.0089 188.991 100 206.25 100Z" fill="#260101"/>
<path d="M275 206.25H274.75H275ZM125 100L84.375 140.625C88.25 142.125 91.375 144 94 145.5C98.625 148.375 101.375 150 108.375 150C115.375 150 118.125 148.375 122.75 145.5C128.5 142.125 136.25 137.5 150.125 137.5C164 137.5 171.75 142.125 177.375 145.5C182 148.25 184.875 150 191.75 150C198.625 150 201.5 148.375 206.125 145.5C207.625 144.625 209.375 143.625 211.25 142.625L131 62.5C111.625 43.125 93.75 37.375 62.5 37.5V68.75C85.25 68.625 98.625 73.625 112.5 87.5L125 100ZM66.875 193.75C73.75 193.75 76.625 195.5 81.25 198.25C86.875 201.625 94.625 206.25 108.5 206.25C122.375 206.25 130.125 201.625 135.75 198.25C140.375 195.375 143.125 193.75 150.125 193.75C157 193.75 159.875 195.5 164.5 198.25C170.125 201.625 177.875 206.25 191.75 206.25C205.625 206.25 213.375 201.625 219 198.25C223.625 195.375 226.375 193.75 233.375 193.75C240.25 193.75 243.125 195.5 247.75 198.25C253.375 201.625 261 206.125 274.75 206.25V181.25C267.875 181.25 265 179.5 260.375 176.75C254.75 173.375 247 168.75 233.125 168.75C219.25 168.75 211.5 173.375 205.875 176.75C201.25 179.625 198.375 181.25 191.5 181.25C184.625 181.25 181.75 179.5 177.125 176.75C171.5 173.375 163.75 168.75 149.875 168.75C136 168.75 128.25 173.375 122.625 176.75C118 179.625 115.25 181.25 108.25 181.25C101.375 181.25 98.5 179.5 93.875 176.75C88.25 173.375 80.5 168.75 66.625 168.75C52.75 168.75 45 173.375 39.375 176.75C34.75 179.625 32 181.25 25 181.25V206.25C38.875 206.25 46.625 201.625 52.5 198.25C57.125 195.375 60 193.75 66.875 193.75V193.75ZM233.375 225C219.5 225 211.75 229.625 206.125 233C201.5 235.875 198.625 237.5 191.75 237.5C184.875 237.5 182 235.75 177.375 233C171.75 229.625 164 225 150.125 225C136.25 225 128.5 229.625 122.75 233C118.125 235.875 115.375 237.5 108.375 237.5C101.375 237.5 98.625 235.875 94 233C88.375 229.625 80.625 225 66.75 225C52.875 225 45.125 229.625 39.375 233C34.75 235.875 32 237.5 25 237.5V262.5C38.875 262.5 46.625 257.875 52.375 254.5C57 251.625 59.875 250 66.75 250C73.625 250 76.5 251.625 81.125 254.5C86.75 257.875 94.5 262.5 108.375 262.5C122.25 262.5 130 257.875 135.75 254.5C140.375 251.625 143.125 250 150.125 250C157 250 159.875 251.75 164.5 254.5C170.125 257.875 177.875 262.5 191.75 262.5C205.625 262.5 213.25 257.875 219 254.5C223.625 251.625 226.375 250 233.375 250C240.25 250 243.125 251.75 247.75 254.5C253.375 257.875 261.125 262.5 275 262.5V237.5C268 237.5 265.25 235.875 260.625 233C255 229.625 247.25 225 233.375 225Z" fill="#260101"/>
<path d="M206.25 100C223.509 100 237.5 86.0089 237.5 68.75C237.5 51.4911 223.509 37.5 206.25 37.5C188.991 37.5 175 51.4911 175 68.75C175 86.0089 188.991 100 206.25 100Z" fill="#260101"/>
</svg>
