<svg width="300" height="300" viewBox="0 0 300 300" fill="none" xmlns="http://www.w3.org/2000/svg">
<g clip-path="url(#clip0_0_1)">
<path d="M150.003 0C100.95 0 60.7497 40.08 60.7497 88.998C60.7497 107.952 66.8037 125.568 77.0487 140.046L139.11 247.335C147.801 258.69 153.579 256.533 160.806 246.735L229.26 130.245C230.64 127.743 231.726 125.079 232.671 122.358C237.015 111.772 239.249 100.44 239.247 88.998C239.25 40.08 199.062 0 150.003 0ZM150.003 41.7C176.421 41.7 197.427 62.658 197.427 88.998C197.427 115.338 176.421 136.287 150.003 136.287C123.588 136.287 102.573 115.341 102.573 88.998C102.573 62.658 123.588 41.703 150.003 41.703V41.7Z" fill="#402525"/>
<path d="M206.739 146.724L206.595 147.102C206.64 146.988 206.676 146.871 206.721 146.757L206.739 146.724ZM191.544 220.062L187.395 225.192C193.005 225.87 198.435 226.665 203.52 227.628L187.083 232.497L209.022 238.332L225.375 233.175C235.419 236.544 249.327 240.663 253.935 245.346H221.145L224.403 254.874H258.429C258.327 260.244 248.727 264.606 239.559 268.14L216.306 263.112L194.397 270.963L217.797 276.303C204.135 280.023 181.197 282.285 162.207 283.326L161.409 272.406H138.591L137.79 283.326C118.8 282.285 95.8647 280.026 82.1997 276.306L105.603 270.963L83.6937 263.112L60.4377 268.14C51.4017 265.395 41.6727 260.244 41.5707 254.874H75.5997L78.8577 245.346H46.0677C50.6757 240.663 64.5837 236.544 74.6277 233.175L90.9807 238.332L112.92 232.497L96.4827 227.628C101.791 226.647 107.13 225.839 112.491 225.207L108.402 220.068C64.0467 224.679 27.1827 234.498 17.5167 250.005C2.09973 274.719 58.9737 299.58 148.11 299.967C149.436 300.033 150.744 299.985 151.98 299.967C241.065 299.559 297.888 274.707 282.483 250.005C272.811 234.492 235.923 224.67 191.541 220.062H191.544Z" fill="#402525"/>
</g>
<defs>
<clipPath id="clip0_0_1">
<rect width="300" height="300" fill="white"/>
</clipPath>
</defs>
</svg>
