<svg width="512" height="512" viewBox="0 0 512 512" fill="none" xmlns="http://www.w3.org/2000/svg">
<path fill-rule="evenodd" clip-rule="evenodd" d="M480 64C480 55.5131 476.629 47.3737 470.627 41.3726C464.626 35.3714 456.487 32 448 32H64C55.5131 32 47.3737 35.3714 41.3726 41.3726C35.3714 47.3737 32 55.5131 32 64V448C32 456.487 35.3714 464.626 41.3726 470.627C47.3737 476.629 55.5131 480 64 480H448C456.487 480 464.626 476.629 470.627 470.627C476.629 464.626 480 456.487 480 448V64ZM0 64C0 47.0261 6.74284 30.7475 18.7452 18.7452C30.7475 6.74284 47.0261 0 64 0L448 0C464.974 0 481.252 6.74284 493.255 18.7452C505.257 30.7475 512 47.0261 512 64V448C512 464.974 505.257 481.252 493.255 493.255C481.252 505.257 464.974 512 448 512H64C47.0261 512 30.7475 505.257 18.7452 493.255C6.74284 481.252 0 464.974 0 448V64ZM144 240C139.757 240 135.687 241.686 132.686 244.686C129.686 247.687 128 251.757 128 256C128 260.243 129.686 264.313 132.686 267.314C135.687 270.314 139.757 272 144 272H329.376L260.672 340.672C259.184 342.16 258.004 343.926 257.199 345.869C256.394 347.813 255.98 349.896 255.98 352C255.98 354.104 256.394 356.187 257.199 358.131C258.004 360.074 259.184 361.84 260.672 363.328C262.16 364.816 263.926 365.996 265.869 366.801C267.813 367.606 269.896 368.02 272 368.02C274.104 368.02 276.187 367.606 278.131 366.801C280.074 365.996 281.84 364.816 283.328 363.328L379.328 267.328C380.818 265.842 382 264.076 382.807 262.132C383.613 260.188 384.029 258.105 384.029 256C384.029 253.895 383.613 251.812 382.807 249.868C382 247.924 380.818 246.158 379.328 244.672L283.328 148.672C281.84 147.184 280.074 146.004 278.131 145.199C276.187 144.394 274.104 143.98 272 143.98C269.896 143.98 267.813 144.394 265.869 145.199C263.926 146.004 262.16 147.184 260.672 148.672C259.184 150.16 258.004 151.926 257.199 153.869C256.394 155.813 255.98 157.896 255.98 160C255.98 162.104 256.394 164.187 257.199 166.131C258.004 168.074 259.184 169.84 260.672 171.328L329.376 240H144Z" fill="#210606"/>
</svg>
