<svg width="300" height="300" viewBox="0 0 300 300" fill="none" xmlns="http://www.w3.org/2000/svg">
<path d="M50 60V120V60ZM50 160V220V160ZM50 270V300V270ZM250 270V300V270ZM190 190C179.391 190 169.217 185.786 161.716 178.284C154.214 170.783 150 160.609 150 150C150 139.391 154.214 129.217 161.716 121.716C169.217 114.214 179.391 110 190 110C200.609 110 210.783 114.214 218.284 121.716C225.786 129.217 230 139.391 230 150C230 160.609 225.786 170.783 218.284 178.284C210.783 185.786 200.609 190 190 190ZM30 10H270C275.304 10 280.391 12.1071 284.142 15.8579C287.893 19.6086 290 24.6957 290 30V250C290 255.304 287.893 260.391 284.142 264.142C280.391 267.893 275.304 270 270 270H30C24.6957 270 19.6086 267.893 15.8579 264.142C12.1071 260.391 10 255.304 10 250V30C10 24.6957 12.1071 19.6086 15.8579 15.8579C19.6086 12.1071 24.6957 10 30 10V10Z" stroke="#D7CCC8" stroke-width="20"/>
</svg>
