<svg width="300" height="300" viewBox="0 0 300 300" fill="none" xmlns="http://www.w3.org/2000/svg">
<path d="M250 250C253.315 250 256.495 251.317 258.839 253.661C261.183 256.005 262.5 259.185 262.5 262.5C262.5 265.815 261.183 268.995 258.839 271.339C256.495 273.683 253.315 275 250 275C246.685 275 243.505 273.683 241.161 271.339C238.817 268.995 237.5 265.815 237.5 262.5C237.5 259.185 238.817 256.005 241.161 253.661C243.505 251.317 246.685 250 250 250ZM200 250C203.315 250 206.495 251.317 208.839 253.661C211.183 256.005 212.5 259.185 212.5 262.5C212.5 265.815 211.183 268.995 208.839 271.339C206.495 273.683 203.315 275 200 275C196.685 275 193.505 273.683 191.161 271.339C188.817 268.995 187.5 265.815 187.5 262.5C187.5 259.185 188.817 256.005 191.161 253.661C193.505 251.317 196.685 250 200 250V250ZM150 250C153.315 250 156.495 251.317 158.839 253.661C161.183 256.005 162.5 259.185 162.5 262.5C162.5 265.815 161.183 268.995 158.839 271.339C156.495 273.683 153.315 275 150 275C146.685 275 143.505 273.683 141.161 271.339C138.817 268.995 137.5 265.815 137.5 262.5C137.5 259.185 138.817 256.005 141.161 253.661C143.505 251.317 146.685 250 150 250V250ZM100 250C103.315 250 106.495 251.317 108.839 253.661C111.183 256.005 112.5 259.185 112.5 262.5C112.5 265.815 111.183 268.995 108.839 271.339C106.495 273.683 103.315 275 100 275C96.6848 275 93.5054 273.683 91.1612 271.339C88.817 268.995 87.5 265.815 87.5 262.5C87.5 259.185 88.817 256.005 91.1612 253.661C93.5054 251.317 96.6848 250 100 250ZM50 250C53.3152 250 56.4946 251.317 58.8388 253.661C61.183 256.005 62.5 259.185 62.5 262.5C62.5 265.815 61.183 268.995 58.8388 271.339C56.4946 273.683 53.3152 275 50 275C46.6848 275 43.5054 273.683 41.1612 271.339C38.817 268.995 37.5 265.815 37.5 262.5C37.5 259.185 38.817 256.005 41.1612 253.661C43.5054 251.317 46.6848 250 50 250V250ZM75 212.5C78.3152 212.5 81.4946 213.817 83.8388 216.161C86.183 218.505 87.5 221.685 87.5 225C87.5 228.315 86.183 231.495 83.8388 233.839C81.4946 236.183 78.3152 237.5 75 237.5C71.6848 237.5 68.5054 236.183 66.1612 233.839C63.817 231.495 62.5 228.315 62.5 225C62.5 221.685 63.817 218.505 66.1612 216.161C68.5054 213.817 71.6848 212.5 75 212.5ZM125 212.5C128.315 212.5 131.495 213.817 133.839 216.161C136.183 218.505 137.5 221.685 137.5 225C137.5 228.315 136.183 231.495 133.839 233.839C131.495 236.183 128.315 237.5 125 237.5C121.685 237.5 118.505 236.183 116.161 233.839C113.817 231.495 112.5 228.315 112.5 225C112.5 221.685 113.817 218.505 116.161 216.161C118.505 213.817 121.685 212.5 125 212.5V212.5ZM175 212.5C178.315 212.5 181.495 213.817 183.839 216.161C186.183 218.505 187.5 221.685 187.5 225C187.5 228.315 186.183 231.495 183.839 233.839C181.495 236.183 178.315 237.5 175 237.5C171.685 237.5 168.505 236.183 166.161 233.839C163.817 231.495 162.5 228.315 162.5 225C162.5 221.685 163.817 218.505 166.161 216.161C168.505 213.817 171.685 212.5 175 212.5V212.5ZM225 212.5C228.315 212.5 231.495 213.817 233.839 216.161C236.183 218.505 237.5 221.685 237.5 225C237.5 228.315 236.183 231.495 233.839 233.839C231.495 236.183 228.315 237.5 225 237.5C221.685 237.5 218.505 236.183 216.161 233.839C213.817 231.495 212.5 228.315 212.5 225C212.5 221.685 213.817 218.505 216.161 216.161C218.505 213.817 221.685 212.5 225 212.5ZM100 175C103.315 175 106.495 176.317 108.839 178.661C111.183 181.005 112.5 184.185 112.5 187.5C112.5 190.815 111.183 193.995 108.839 196.339C106.495 198.683 103.315 200 100 200C96.6848 200 93.5054 198.683 91.1612 196.339C88.817 193.995 87.5 190.815 87.5 187.5C87.5 184.185 88.817 181.005 91.1612 178.661C93.5054 176.317 96.6848 175 100 175ZM150 175C153.315 175 156.495 176.317 158.839 178.661C161.183 181.005 162.5 184.185 162.5 187.5C162.5 190.815 161.183 193.995 158.839 196.339C156.495 198.683 153.315 200 150 200C146.685 200 143.505 198.683 141.161 196.339C138.817 193.995 137.5 190.815 137.5 187.5C137.5 184.185 138.817 181.005 141.161 178.661C143.505 176.317 146.685 175 150 175V175ZM200 175C203.315 175 206.495 176.317 208.839 178.661C211.183 181.005 212.5 184.185 212.5 187.5C212.5 190.815 211.183 193.995 208.839 196.339C206.495 198.683 203.315 200 200 200C196.685 200 193.505 198.683 191.161 196.339C188.817 193.995 187.5 190.815 187.5 187.5C187.5 184.185 188.817 181.005 191.161 178.661C193.505 176.317 196.685 175 200 175V175ZM237.5 150H62.5V125H237.5V150ZM224 112.5H76C81.25 81.25 106.25 56.25 137.5 51V25H162.5V51C193.75 56.25 218.75 81.25 224 112.5Z" fill="#260101"/>
</svg>
