<svg width="300" height="300" viewBox="0 0 300 300" fill="none" xmlns="http://www.w3.org/2000/svg">
<path d="M281.25 103.125V28.125C281.25 25.6386 280.262 23.254 278.504 21.4959C276.746 19.7377 274.361 18.75 271.875 18.75H178.125C175.639 18.75 173.254 19.7377 171.496 21.4959C169.738 23.254 168.75 25.6386 168.75 28.125V103.125C168.771 116.406 173.487 129.252 182.066 139.392C190.644 149.531 202.531 156.31 215.625 158.531V262.5H178.125V281.25H271.875V262.5H234.375V158.531C247.469 156.31 259.356 149.531 267.934 139.392C276.513 129.252 281.229 116.406 281.25 103.125V103.125ZM187.5 103.125V37.5H262.5V103.125C262.5 113.071 258.549 122.609 251.516 129.642C244.484 136.674 234.946 140.625 225 140.625C215.054 140.625 205.516 136.674 198.484 129.642C191.451 122.609 187.5 113.071 187.5 103.125ZM112.5 18.75V103.313C112.49 113.156 108.576 122.593 101.615 129.553C94.6552 136.513 85.2181 140.428 75.375 140.437C65.4329 140.525 55.862 136.666 48.7617 129.706C41.6613 122.746 37.6113 113.254 37.5 103.313V18.75H18.75V103.313C18.8422 116.529 23.5937 129.289 32.1681 139.346C40.7424 149.404 52.5899 156.115 65.625 158.297V281.25H84.375V158.391C97.4453 156.248 109.331 149.536 117.915 139.449C126.499 129.363 131.225 116.557 131.25 103.313V18.75H112.5Z" fill="#D7CCC8"/>
<path d="M65.625 18.75H84.375V112.312H65.625V18.75Z" fill="#D7CCC8"/>
</svg>
