<svg width="300" height="300" viewBox="0 0 300 300" fill="none" xmlns="http://www.w3.org/2000/svg">
<path d="M140.625 75C140.625 77.4864 139.637 79.871 137.879 81.6291C136.121 83.3873 133.736 84.375 131.25 84.375H112.5C110.014 84.375 107.629 83.3873 105.871 81.6291C104.113 79.871 103.125 77.4864 103.125 75C103.125 72.5136 104.113 70.129 105.871 68.3709C107.629 66.6127 110.014 65.625 112.5 65.625H131.25C133.736 65.625 136.121 66.6127 137.879 68.3709C139.637 70.129 140.625 72.5136 140.625 75ZM200.625 231.68L204.609 259.805C205.016 262.467 204.841 265.185 204.096 267.773C203.35 270.36 202.053 272.756 200.294 274.794C198.534 276.832 196.353 278.465 193.902 279.58C191.45 280.694 188.787 281.264 186.094 281.25H113.906C111.213 281.264 108.55 280.694 106.098 279.58C103.647 278.465 101.466 276.832 99.7064 274.794C97.9466 272.756 96.6496 270.36 95.9045 267.773C95.1594 265.185 94.9841 262.467 95.3906 259.805L99.375 231.68C80.776 222.308 65.1437 207.957 54.2191 190.225C43.2946 172.493 37.5067 152.077 37.5 131.25C37.5 128.764 38.4877 126.379 40.2459 124.621C42.004 122.863 44.3886 121.875 46.875 121.875H65.625V46.875C65.625 41.9022 67.6004 37.1331 71.1167 33.6167C74.6331 30.1004 79.4022 28.125 84.375 28.125H215.625C220.598 28.125 225.367 30.1004 228.883 33.6167C232.4 37.1331 234.375 41.9022 234.375 46.875V121.875H253.125C255.611 121.875 257.996 122.863 259.754 124.621C261.512 126.379 262.5 128.764 262.5 131.25C262.493 152.077 256.705 172.493 245.781 190.225C234.856 207.957 219.224 222.308 200.625 231.68ZM84.375 121.875H215.625V46.875H84.375V121.875ZM182.695 238.945C161.369 245.35 138.631 245.35 117.305 238.945L113.906 262.5H186.094L182.695 238.945ZM243.281 140.625H56.7188C59.0401 163.752 69.8697 185.192 87.1062 200.785C104.343 216.378 126.757 225.012 150 225.012C173.243 225.012 195.657 216.378 212.894 200.785C230.13 185.192 240.96 163.752 243.281 140.625Z" fill="#D7CCC8"/>
</svg>
