<svg width="300" height="300" viewBox="0 0 300 300" fill="none" xmlns="http://www.w3.org/2000/svg">
<path d="M94.65 124.2C87.2268 124.2 79.9707 126.403 73.8006 130.53C67.6306 134.658 62.8242 140.523 59.9904 147.384C57.1566 154.245 56.4228 161.793 57.8819 169.071C59.3411 176.35 62.9275 183.031 68.187 188.27C73.4465 193.508 80.1424 197.068 87.4265 198.498C94.7106 199.928 102.255 199.164 109.105 196.302C115.954 193.441 121.801 188.611 125.903 182.425C130.006 176.238 132.18 168.973 132.15 161.55C132.11 151.63 128.142 142.131 121.114 135.13C114.085 128.13 104.57 124.2 94.65 124.2V124.2ZM94.65 181.2C91.9354 181.438 89.2009 181.108 86.6204 180.233C84.0398 179.357 81.6697 177.954 79.6604 176.113C77.6512 174.272 76.0468 172.034 74.9492 169.54C73.8516 167.045 73.2848 164.35 73.2848 161.625C73.2848 158.9 73.8516 156.205 74.9492 153.71C76.0468 151.216 77.6512 148.977 79.6604 147.137C81.6697 145.296 84.0398 143.893 86.6204 143.017C89.2009 142.141 91.9354 141.812 94.65 142.05C97.3647 141.812 100.099 142.141 102.68 143.017C105.26 143.893 107.63 145.296 109.64 147.137C111.649 148.977 113.253 151.216 114.351 153.71C115.448 156.205 116.015 158.9 116.015 161.625C116.015 164.35 115.448 167.045 114.351 169.54C113.253 172.034 111.649 174.272 109.64 176.113C107.63 177.954 105.26 179.357 102.68 180.233C100.099 181.108 97.3647 181.438 94.65 181.2V181.2ZM205.35 124.2C197.927 124.2 190.671 126.403 184.501 130.53C178.331 134.658 173.524 140.523 170.69 147.384C167.857 154.245 167.123 161.793 168.582 169.071C170.041 176.35 173.627 183.031 178.887 188.27C184.146 193.508 190.842 197.068 198.126 198.498C205.411 199.928 212.955 199.164 219.805 196.302C226.654 193.441 232.501 188.611 236.603 182.425C240.706 176.238 242.88 168.973 242.85 161.55C242.81 151.63 238.842 142.131 231.814 135.13C224.785 128.13 215.27 124.2 205.35 124.2V124.2ZM225 161.55C225.03 165.443 223.903 169.256 221.762 172.507C219.62 175.759 216.562 178.3 212.974 179.811C209.386 181.321 205.431 181.732 201.609 180.99C197.788 180.249 194.272 178.39 191.509 175.648C188.746 172.906 186.86 169.405 186.089 165.589C185.319 161.773 185.699 157.815 187.182 154.215C188.665 150.616 191.183 147.538 194.418 145.372C197.652 143.206 201.457 142.05 205.35 142.05C210.536 142.05 215.511 144.099 219.192 147.752C222.873 151.405 224.96 156.364 225 161.55Z" fill="#542525"/>
<path d="M150 0C120.333 0 91.3319 8.79735 66.6645 25.2796C41.9971 41.7618 22.7713 65.1886 11.4181 92.5975C0.0649926 120.006 -2.90551 150.166 2.88228 179.264C8.67006 208.361 22.9562 235.088 43.934 256.066C64.9119 277.044 91.6394 291.33 120.737 297.118C149.834 302.906 179.994 299.935 207.403 288.582C234.811 277.229 258.238 258.003 274.72 233.335C291.203 208.668 300 179.667 300 150C300 130.302 296.12 110.796 288.582 92.5975C281.044 74.3986 269.995 57.8628 256.066 43.934C242.137 30.0052 225.601 18.9563 207.403 11.4181C189.204 3.87986 169.698 0 150 0V0ZM260.7 161.55C260.715 172.328 257.583 182.876 251.689 191.899C245.794 200.922 237.394 208.028 227.518 212.345C217.643 216.661 206.721 218.001 196.095 216.199C185.469 214.397 175.6 209.531 167.7 202.2L150 221.55L132.3 202.2C126.942 207.125 120.667 210.946 113.832 213.445C106.997 215.944 99.7374 217.073 92.4666 216.766C85.1958 216.46 78.0565 214.724 71.4564 211.659C64.8563 208.593 58.9246 204.258 54.0001 198.9C49.0755 193.542 45.2545 187.267 42.7551 180.432C40.2558 173.597 39.1272 166.337 39.4336 159.067C39.74 151.796 41.4756 144.656 44.5411 138.056C47.6066 131.456 51.9421 125.525 57.3001 120.6L39.3001 101.1H79.5001C100.286 86.8728 124.886 79.26 150.075 79.26C175.264 79.26 199.864 86.8728 220.65 101.1H260.7L242.7 120.75C248.351 125.942 252.868 132.247 255.965 139.268C259.063 146.29 260.675 153.876 260.7 161.55V161.55Z" fill="#542525"/>
<path d="M191.55 105.75C178.387 100.255 164.264 97.425 150 97.425C135.736 97.425 121.613 100.255 108.45 105.75C120.083 109.631 130.273 116.934 137.687 126.703C145.1 136.472 149.392 148.252 150 160.5C150.648 148.263 154.955 136.503 162.363 126.741C169.771 116.98 179.939 109.667 191.55 105.75V105.75Z" fill="#542525"/>
</svg>
