<svg width="840" height="466" viewBox="0 0 840 466" fill="none" xmlns="http://www.w3.org/2000/svg">
<path d="M0 298.5H839.5L838.5 294L0 278V298.5Z" fill="#097107"/>
<path d="M0 273.5V291L838 296.487V295L0 273.5Z" fill="#097107"/>
<path d="M57 208L0 234.5V284.5L838.5 295.5V248L832.5 226.5L815 208L806 154L798 121.5L783.5 113H769.5L756 121.5H742L733.5 131.5L722.5 141.5L709 154L682.5 131.5L670.5 98L635.5 87.5L601 78.5L582.5 72.5H563L541 63L522.5 53L513 41.5V35.5L505 29.5L499 35.5L480.5 29.5L458 17L424.5 0H407L393 7L376.5 17L353 29.5L336.5 41.5L289 78.5H276.5L226.5 113L218.5 121.5L197 131.5L191 141.5H184.5L162.5 154V162L137 178.5L103 193.5H87L66.5 208H57Z" fill="#402525"/>
<path d="M156.697 220.968L157.128 286.466L569.192 294.752L569.12 283.752L557.057 274.331L556.912 252.332L568.823 238.753L568.675 216.253L577.076 201.198L576.941 180.698L573.332 164.221L576.671 139.699L576.463 108.2L555.861 92.835L547.101 53.3919L547.019 40.8921L535.019 40.9712L535.065 47.9711L520.566 48.0666L503.474 34.1789L464.475 34.4358L455.435 28.4953L446.975 34.5511L419.476 34.7323L419.568 48.732L402.568 48.844L395.105 54.3933L383.151 61.4722L319.137 135.396L308.137 135.468L308.176 141.468L293.677 141.563L287.73 149.603L277.73 149.669L259.266 155.29L259.313 162.29L249.313 162.356L239.909 176.918L228.909 176.991L211.488 189.106L205.488 189.145L193.048 198.228L156.697 220.968Z" fill="#795548"/>
<path d="M648 289L672.5 295.5H789V280L782.5 258.5V239L774.5 230L758 219L752 200.5V163.5L746 154.5V120H709.5L701 127H689L680.5 135L672.5 141.5L666.5 146.5H660.5L666.5 154.5H660.5V180L655 219L640 239L648 252.5V289Z" fill="#F2AC57"/>
<path d="M540 248.5V294.5H658.5V248.5L650 217L640 168V142.5L618.5 134L610.5 168V134L604 115L587 105.5V87L561.5 77V87L567.5 95.5V134H561.5V156.5L556.5 158.5V208.5H552L556.5 224L552 227V248.5H540Z" fill="#E8D0B3"/>
<path d="M341 288.5H310.5L305.5 241.5L296 235.5L305.5 226V170L310.5 142.5L319.5 129L332 120L341 129V288.5Z" fill="#6F2C10"/>
<path d="M341 113.5V288H489L490 282L489 277L482 265.5L490 252.5L497 236V194L490 179L497 161.5V142L482 131V113.5H465.5L456.5 106.5V94L448 89L440 99.5H405.5L394 89C387.167 92.5 371.3 99.5 362.5 99.5C353.7 99.5 351.167 104.167 351 106.5L341 113.5Z" fill="#B94B32"/>
<path d="M33.12 325.32L53.28 326.44C62.24 326.44 68.68 325.367 72.6 323.22C73.16 322.847 73.6267 322.66 74 322.66C74.4667 322.66 74.7 323.313 74.7 324.62C74.7 325.927 73.9067 328.073 72.32 331.06C69.9867 335.633 66.6267 337.92 62.24 337.92L54.54 337.78C53.7933 337.78 53.3267 338.2 53.14 339.04C52.4867 352.76 52.16 367.6 52.16 383.56C52.16 399.427 52.8133 411.373 54.12 419.4V420.1C54.12 422.433 51.88 424.3 47.4 425.7C43.0133 427.1 38.86 427.8 34.94 427.8C33.0733 427.8 32.14 427.287 32.14 426.26C32.14 425.98 32.28 425.327 32.56 424.3C33.5867 422.247 34.4733 412.307 35.22 394.48C36.06 376.653 36.48 363.213 36.48 354.16L36.2 338.9C36.2 338.34 35.92 338.013 35.36 337.92C33.4 337.547 31.16 337.36 28.64 337.36C23.6 337.36 19.8667 338.387 17.44 340.44C16.7867 340.907 16.18 341.14 15.62 341.14C14.9667 341.14 14.64 340.767 14.64 340.02C14.64 338.9 15.2467 337.36 16.46 335.4C17.58 333.44 18.7933 331.76 20.1 330.36C23.2733 327 27.6133 325.32 33.12 325.32Z" fill="#402525"/>
<path d="M119.338 362.7C117.658 372.78 116.818 385.613 116.818 401.2C116.818 412.68 117.285 420.24 118.218 423.88L118.778 425.7C118.778 426.913 117.751 427.52 115.698 427.52C108.511 427.52 104.405 425.513 103.378 421.5C103.285 421.033 103.051 420.8 102.678 420.8C102.398 420.8 102.118 420.987 101.838 421.36C98.9448 425.187 94.4648 427.1 88.3981 427.1C85.0381 427.1 81.5381 426.26 77.8981 424.58C75.6581 423.553 73.8381 421.78 72.4381 419.26C71.0381 416.647 70.3381 413.473 70.3381 409.74L72.4381 379.08C72.4381 372.64 71.7848 368.067 70.4781 365.36C70.0115 364.333 69.7781 363.68 69.7781 363.4C69.7781 362.84 70.0115 362.467 70.4781 362.28C71.9715 361.813 73.8848 361.58 76.2181 361.58C85.2715 361.58 89.7981 365.313 89.7981 372.78C89.7981 375.113 88.8181 380.433 86.8581 388.74C84.9915 397.047 84.0581 402.973 84.0581 406.52C84.0581 409.973 84.8048 412.633 86.2981 414.5C87.8848 416.367 90.0315 417.3 92.7381 417.3C95.5381 417.3 97.7315 416.32 99.3181 414.36C100.905 412.4 101.838 410.44 102.118 408.48L102.538 405.54C102.911 402.273 103.098 396.533 103.098 388.32C103.098 380.107 102.818 374.927 102.258 372.78C101.791 370.54 101.558 369.14 101.558 368.58C101.558 366.247 103.425 364.427 107.158 363.12C110.891 361.72 114.251 361.02 117.238 361.02C118.638 361.02 119.338 361.58 119.338 362.7Z" fill="#402525"/>
<path d="M168.806 387.48L169.366 392.38C169.366 394.153 167.686 395.04 164.326 395.04C157.513 395.04 154.106 392.473 154.106 387.34C154.106 386.127 154.433 384.447 155.086 382.3C155.74 380.153 156.066 378.287 156.066 376.7C156.066 375.113 155.6 373.76 154.666 372.64C153.733 371.427 152.38 370.82 150.606 370.82C148.833 370.82 147.293 371.473 145.986 372.78C144.773 373.993 144.026 375.253 143.746 376.56L143.186 378.52C142.626 381.413 142.346 386.267 142.346 393.08C142.346 399.8 142.44 405.12 142.626 409.04C142.813 412.867 143 415.527 143.186 417.02C143.373 418.42 143.466 419.26 143.466 419.54C143.466 421.873 142.02 423.74 139.126 425.14C136.233 426.633 133.34 427.38 130.446 427.38C127.553 427.38 126.106 426.773 126.106 425.56L126.806 421.22C128.113 413.1 128.766 402.507 128.766 389.44C128.766 376.373 128.3 367.507 127.366 362.84C127.366 361.72 128.346 361.16 130.306 361.16C135.346 361.16 138.706 362.887 140.386 366.34C140.48 366.713 140.62 366.9 140.806 366.9C141.086 366.9 141.74 366.48 142.766 365.64C145.846 363.12 149.486 361.86 153.686 361.86C156.3 361.86 158.913 362.373 161.526 363.4C166.846 365.547 169.506 370.027 169.506 376.84L168.806 387.48Z" fill="#402525"/>
<path d="M190.292 350.1L186.932 349.96C184.412 349.96 182.779 350.567 182.032 351.78C181.845 352.06 181.612 352.2 181.332 352.2C180.119 352.2 179.512 350.147 179.512 346.04C179.512 341.84 180.119 339.18 181.332 338.06C182.639 336.94 184.832 336.38 187.912 336.38C191.085 336.38 193.232 336.94 194.352 338.06C195.472 339.087 196.032 340.86 196.032 343.38C196.032 345.9 195.612 347.673 194.772 348.7C193.932 349.633 192.439 350.1 190.292 350.1ZM179.092 420.8L180.632 388.18C180.632 380.433 179.745 375.16 177.972 372.36C177.412 371.427 176.759 370.727 176.012 370.26C175.452 370.073 175.172 369.7 175.172 369.14C175.172 367.46 177.552 365.827 182.312 364.24C187.072 362.653 190.525 361.86 192.672 361.86C194.912 361.86 196.079 362.42 196.172 363.54C196.172 365.407 195.892 370.727 195.332 379.5C194.865 388.18 194.632 397.327 194.632 406.94C194.632 416.553 195.192 422.527 196.312 424.86C196.592 425.327 196.732 425.793 196.732 426.26C196.732 427.473 194.959 428.08 191.412 428.08C187.865 428.08 184.225 427.147 180.492 425.28C179.559 424.813 179.092 423.32 179.092 420.8Z" fill="#402525"/>
<path d="M247.826 405.82C247.826 409.833 247.033 413.333 245.446 416.32C243.953 419.307 242.226 421.5 240.266 422.9C238.306 424.3 235.973 425.42 233.266 426.26C229.72 427.38 226.5 427.94 223.606 427.94C217.54 427.94 212.5 426.773 208.486 424.44C204.473 422.013 202.466 418.187 202.466 412.96C202.466 409.88 203.306 407.36 204.986 405.4C207.6 402.507 210.726 401.06 214.366 401.06C215.486 401.06 216.046 401.573 216.046 402.6C216.046 402.693 215.813 403.44 215.346 404.84C214.973 406.147 214.786 407.827 214.786 409.88C214.786 411.933 215.58 413.753 217.166 415.34C218.846 416.927 220.853 417.72 223.186 417.72C225.52 417.72 227.386 417.347 228.786 416.6C230.186 415.76 231.166 414.733 231.726 413.52C232.566 411.84 232.986 410.253 232.986 408.76C232.986 406.053 231.633 403.72 228.926 401.76C226.22 399.8 223.233 398.26 219.966 397.14C216.7 396.02 213.713 394.153 211.006 391.54C208.3 388.927 206.946 385.66 206.946 381.74C206.946 375.02 209.046 369.98 213.246 366.62C217.54 363.26 223.326 361.58 230.606 361.58C233.78 361.58 237.093 362.047 240.546 362.98C244.093 363.82 245.866 365.313 245.866 367.46C245.866 369.513 245.493 371.427 244.746 373.2C244.093 374.973 243.253 375.86 242.226 375.86C241.666 375.86 241.293 375.673 241.106 375.3C240.92 374.833 240.593 374.32 240.126 373.76C239.66 373.2 238.54 372.5 236.766 371.66C234.993 370.727 233.453 370.26 232.146 370.26C230.933 370.26 230.093 370.307 229.626 370.4C229.253 370.4 228.553 370.54 227.526 370.82C226.5 371.007 225.566 371.333 224.726 371.8C222.58 373.013 221.506 374.787 221.506 377.12C221.506 378.613 221.833 379.733 222.486 380.48C223.14 381.133 223.653 381.647 224.026 382.02C224.4 382.393 225.053 382.86 225.986 383.42C226.92 383.887 227.573 384.213 227.946 384.4C228.32 384.587 229.16 385.007 230.466 385.66C231.773 386.22 232.613 386.593 232.986 386.78C242.88 391.447 247.826 397.793 247.826 405.82Z" fill="#402525"/>
<path d="M285.031 425.84C286.338 419.307 286.991 410.16 286.991 398.4C286.991 386.547 286.945 379.547 286.851 377.4C286.758 375.253 286.105 373.527 284.891 372.22C283.678 370.913 282.605 370.167 281.671 369.98C280.831 369.793 279.618 369.7 278.031 369.7C276.445 369.7 274.905 370.447 273.411 371.94C271.918 373.34 271.031 374.787 270.751 376.28L270.191 378.52C269.911 381.32 269.771 387.527 269.771 397.14C269.771 406.753 269.958 412.82 270.331 415.34C270.798 417.767 271.031 419.4 271.031 420.24C271.031 421.08 270.658 421.92 269.911 422.76C266.738 426.12 262.258 427.8 256.471 427.8C254.418 427.8 253.391 427.193 253.391 425.98C255.258 414.78 256.191 400.5 256.191 383.14C256.191 376.7 256.051 372.36 255.771 370.12L255.211 365.64C255.118 364.613 254.931 363.493 254.651 362.28C254.651 361.16 256.098 360.6 258.991 360.6C263.285 360.6 266.131 362.187 267.531 365.36C267.625 365.733 267.811 365.92 268.091 365.92C268.371 365.92 269.025 365.547 270.051 364.8C273.131 362.373 277.285 361.16 282.511 361.16C285.498 361.16 288.438 361.72 291.331 362.84C294.225 363.96 296.231 365.453 297.351 367.32C297.445 367.507 297.585 367.6 297.771 367.6C297.958 367.6 298.238 367.413 298.611 367.04C302.531 363.12 307.618 361.16 313.871 361.16C322.178 361.16 327.871 364.147 330.951 370.12C332.071 372.453 332.631 375.393 332.631 378.94C332.631 382.487 332.351 387.527 331.791 394.06C331.231 400.593 330.951 405.587 330.951 409.04C330.951 412.493 331.278 415.62 331.931 418.42C332.678 421.22 333.378 423.227 334.031 424.44C334.778 425.653 335.151 426.353 335.151 426.54C335.151 427.753 333.845 428.36 331.231 428.36C324.791 428.36 320.311 427.053 317.791 424.44C315.271 421.827 314.011 418.42 314.011 414.22C314.011 409.927 314.851 404.187 316.531 397C318.305 389.72 319.191 384.26 319.191 380.62C319.191 373.247 316.205 369.56 310.231 369.56C307.711 369.56 305.705 370.307 304.211 371.8C302.718 373.293 301.831 374.787 301.551 376.28L301.271 378.52C300.898 382.813 300.711 387.993 300.711 394.06C300.711 400.127 300.805 404.887 300.991 408.34C301.178 411.7 301.365 414.36 301.551 416.32C301.738 418.187 301.831 419.307 301.831 419.68C301.831 422.293 300.198 424.3 296.931 425.7C293.665 427.1 290.491 427.8 287.411 427.8C285.825 427.8 285.031 427.147 285.031 425.84Z" fill="#402525"/>
<path d="M353.518 372.22C351.091 372.313 349.318 372.407 348.198 372.5C347.171 372.5 346.658 372.22 346.658 371.66C346.658 371.1 346.938 370.54 347.498 369.98C353.471 364.473 363.551 361.72 377.738 361.72C382.591 361.72 386.418 362.14 389.218 362.98L390.618 363.4C391.738 363.867 392.298 364.38 392.298 364.94C392.298 365.407 391.971 365.78 391.318 366.06C388.798 366.807 386.371 368.02 384.038 369.7C381.704 371.287 380.538 372.407 380.538 373.06L381.378 374.04C384.364 375.72 386.651 378.38 388.238 382.02C389.918 385.66 390.851 388.88 391.038 391.68L391.318 396.02C391.318 405.26 388.751 412.867 383.618 418.84C378.484 424.813 371.484 427.8 362.618 427.8C358.138 427.8 354.264 427.007 350.998 425.42C347.731 423.833 345.304 422.06 343.718 420.1C342.224 418.047 341.011 415.76 340.078 413.24C338.958 409.787 338.398 406.24 338.398 402.6C338.398 398.867 339.004 395.133 340.218 391.4C341.524 387.667 342.971 384.913 344.558 383.14C346.238 381.367 348.104 379.92 350.158 378.8C352.771 377.4 354.871 376.7 356.458 376.7C358.044 376.7 358.838 377.027 358.838 377.68L357.998 379.08C355.944 381.507 354.451 384.68 353.518 388.6C352.678 392.52 352.258 396.02 352.258 399.1C352.258 402.087 352.631 405.073 353.378 408.06C354.124 411.047 354.964 413.287 355.898 414.78C356.831 416.18 357.904 417.253 359.118 418C360.891 419.12 362.758 419.68 364.718 419.68C366.678 419.68 368.591 418.933 370.458 417.44C372.324 415.853 373.678 413.8 374.518 411.28C376.198 406.613 377.038 401.807 377.038 396.86C377.038 389.02 375.031 382.953 371.018 378.66C367.098 374.367 361.264 372.22 353.518 372.22Z" fill="#402525"/>
<path d="M484.223 392.94C485.996 392.94 486.883 395.18 486.883 399.66C486.883 404.14 486.043 408.153 484.363 411.7C482.683 415.247 480.63 418 478.203 419.96C475.87 421.92 473.21 423.507 470.223 424.72C460.236 429.107 450.903 429.013 442.223 424.44C437.836 422.107 434.476 419.353 432.143 416.18C429.81 412.913 427.943 409.04 426.543 404.56C424.396 397.84 423.323 390.793 423.323 383.42C423.323 376.047 424.023 369.14 425.423 362.7C426.823 356.26 428.97 350.147 431.863 344.36C434.756 338.48 438.863 333.767 444.183 330.22C449.503 326.673 455.663 324.9 462.663 324.9C465.65 324.9 468.73 325.413 471.903 326.44C475.17 327.373 477.83 328.587 479.883 330.08C481.936 331.48 483.756 333.673 485.343 336.66C486.93 339.647 487.723 343.147 487.723 347.16C487.723 351.453 486.696 355.327 484.643 358.78C483.71 360.367 482.216 361.813 480.163 363.12C478.11 364.333 475.683 364.94 472.883 364.94C468.59 364.94 465.556 363.027 463.783 359.2C463.036 357.707 462.663 356.073 462.663 354.3C462.663 352.527 463.27 351.5 464.483 351.22C465.79 350.847 467.003 349.82 468.123 348.14C469.243 346.46 469.803 344.5 469.803 342.26C469.803 340.487 469.336 338.947 468.403 337.64C466.63 335.307 464.063 334.14 460.703 334.14C457.343 334.14 454.263 335.68 451.463 338.76C448.756 341.84 446.703 345.713 445.303 350.38C442.503 359.713 441.103 368.3 441.103 376.14C441.103 383.98 442.176 390.28 444.323 395.04C446.936 400.92 450.25 404.84 454.263 406.8C456.783 408.013 459.676 408.62 462.943 408.62C468.45 408.62 473.396 406.147 477.783 401.2C479.65 399.24 481.19 396.907 482.403 394.2C482.87 393.36 483.476 392.94 484.223 392.94Z" fill="#402525"/>
<path d="M541.323 383L541.043 400.92C541.043 413.333 542.397 420.8 545.103 423.32C545.477 423.693 545.663 424.113 545.663 424.58C545.663 425.98 542.63 426.68 536.563 426.68C530.59 426.68 527.417 424.907 527.043 421.36C526.95 420.52 526.903 418.793 526.903 416.18L527.463 393.78C527.463 393.127 527.09 392.8 526.343 392.8C521.863 392.8 517.663 394.06 513.743 396.58C509.823 399.1 507.863 402.32 507.863 406.24C507.863 408.293 508.423 410.02 509.543 411.42C510.663 412.82 512.017 413.52 513.603 413.52C515.283 413.52 516.637 413.193 517.663 412.54C518.783 411.887 519.437 411.513 519.623 411.42C521.21 411.607 522.003 413.287 522.003 416.46C522.003 419.54 520.557 422.06 517.663 424.02C514.77 425.887 511.737 426.82 508.563 426.82C505.39 426.82 502.637 426.26 500.303 425.14C498.063 424.02 496.43 422.76 495.403 421.36C494.377 419.96 493.537 418.373 492.883 416.6C492.23 414.453 491.903 412.587 491.903 411C491.903 404.467 493.957 399.24 498.063 395.32C502.17 391.4 507.443 388.6 513.883 386.92C522.377 385.24 526.81 383.7 527.183 382.3C527.463 381.273 527.603 379.547 527.603 377.12C527.603 372.173 525.083 369.7 520.043 369.7C517.897 369.7 515.983 370.4 514.303 371.8C512.623 373.107 511.783 374.787 511.783 376.84L512.623 380.2C512.437 381.787 510.757 382.72 507.583 383L506.043 383.14C503.243 383.14 501.003 382.44 499.323 381.04C497.737 379.64 496.943 377.773 496.943 375.44C496.943 373.947 497.41 372.313 498.343 370.54C499.37 368.673 500.63 367.18 502.123 366.06C503.617 364.94 505.903 363.96 508.983 363.12C512.157 362.187 515.19 361.72 518.083 361.72C520.977 361.72 523.217 361.813 524.803 362C526.39 362.187 528.537 362.653 531.243 363.4C534.043 364.053 536.33 365.36 538.103 367.32C539.97 369.28 540.95 371.38 541.043 373.62C541.23 375.767 541.323 378.893 541.323 383Z" fill="#402525"/>
<path d="M567.998 390L568.698 418C568.698 423.88 567.904 429.06 566.318 433.54C564.824 438.113 562.958 441.52 560.718 443.76C556.144 448.52 552.131 451.227 548.678 451.88L546.298 452.44C544.898 452.44 544.198 452.02 544.198 451.18L544.898 449.08C551.711 439.653 555.118 416.507 555.118 379.64C555.118 376.28 555.071 373.76 554.978 372.08C553.018 372.08 551.058 372.22 549.098 372.5H548.958C547.931 372.5 547.418 371.987 547.418 370.96L547.838 365.64C547.931 364.8 548.584 364.38 549.798 364.38H554.838V355L555.118 341.7C555.118 341.047 555.211 340.347 555.398 339.6C555.678 338.76 556.704 337.547 558.478 335.96C560.251 334.28 562.864 332.787 566.318 331.48C569.771 330.08 572.711 329.38 575.138 329.38C577.658 329.38 578.918 330.127 578.918 331.62C578.918 332.18 578.498 332.647 577.658 333.02C574.951 333.86 572.711 336.287 570.938 340.3C569.258 344.22 568.418 350.94 568.418 360.46V364.38C573.178 364.193 576.304 363.96 577.798 363.68C578.451 363.68 578.778 364.24 578.778 365.36C578.778 366.48 578.264 367.88 577.238 369.56C576.304 371.147 575.091 371.987 573.598 372.08C572.198 372.08 570.424 372.033 568.278 371.94C568.091 379.033 567.998 385.053 567.998 390Z" fill="#402525"/>
<path d="M627.593 383L627.313 400.92C627.313 413.333 628.666 420.8 631.373 423.32C631.746 423.693 631.933 424.113 631.933 424.58C631.933 425.98 628.899 426.68 622.833 426.68C616.859 426.68 613.686 424.907 613.313 421.36C613.219 420.52 613.173 418.793 613.173 416.18L613.733 393.78C613.733 393.127 613.359 392.8 612.613 392.8C608.133 392.8 603.933 394.06 600.013 396.58C596.093 399.1 594.133 402.32 594.133 406.24C594.133 408.293 594.693 410.02 595.813 411.42C596.933 412.82 598.286 413.52 599.873 413.52C601.553 413.52 602.906 413.193 603.933 412.54C605.053 411.887 605.706 411.513 605.893 411.42C607.479 411.607 608.273 413.287 608.273 416.46C608.273 419.54 606.826 422.06 603.933 424.02C601.039 425.887 598.006 426.82 594.833 426.82C591.659 426.82 588.906 426.26 586.573 425.14C584.333 424.02 582.699 422.76 581.673 421.36C580.646 419.96 579.806 418.373 579.153 416.6C578.5 414.453 578.173 412.587 578.173 411C578.173 404.467 580.226 399.24 584.333 395.32C588.44 391.4 593.713 388.6 600.153 386.92C608.646 385.24 613.079 383.7 613.453 382.3C613.733 381.273 613.873 379.547 613.873 377.12C613.873 372.173 611.353 369.7 606.313 369.7C604.166 369.7 602.253 370.4 600.573 371.8C598.893 373.107 598.053 374.787 598.053 376.84L598.893 380.2C598.706 381.787 597.026 382.72 593.853 383L592.313 383.14C589.513 383.14 587.273 382.44 585.593 381.04C584.006 379.64 583.213 377.773 583.213 375.44C583.213 373.947 583.679 372.313 584.613 370.54C585.639 368.673 586.899 367.18 588.393 366.06C589.886 364.94 592.173 363.96 595.253 363.12C598.426 362.187 601.46 361.72 604.353 361.72C607.246 361.72 609.486 361.813 611.073 362C612.659 362.187 614.806 362.653 617.513 363.4C620.313 364.053 622.599 365.36 624.373 367.32C626.239 369.28 627.219 371.38 627.313 373.62C627.499 375.767 627.593 378.893 627.593 383Z" fill="#402525"/>
<path d="M660.847 463.78C660.847 464.9 660.287 465.46 659.167 465.46H659.027C655.947 465.46 652.447 464.387 648.527 462.24C644.701 460.093 642.787 457.62 642.787 454.82C642.787 452.02 644.56 447.12 648.107 440.12C651.654 433.213 653.427 428.593 653.427 426.26C653.427 423.74 652.214 419.213 649.787 412.68C646.707 404.187 644.234 397.28 642.367 391.96C640.594 386.64 638.634 381.973 636.487 377.96C634.434 373.853 632.941 371.427 632.007 370.68L630.607 369.7C629.581 369.14 629.067 368.533 629.067 367.88C629.067 366.573 631.074 365.267 635.087 363.96C639.194 362.56 642.787 361.86 645.867 361.86C647.267 361.86 648.434 362.98 649.367 365.22C651.047 369.607 652.867 375.673 654.827 383.42C659.587 399.287 662.574 407.22 663.787 407.22C664.627 407.22 666.307 403.953 668.827 397.42C671.441 390.887 672.747 385.613 672.747 381.6C672.747 374.6 670.694 370.493 666.587 369.28C665.654 369.093 665.187 368.627 665.187 367.88C665.187 366.2 667.381 364.613 671.767 363.12C676.154 361.533 680.12 360.74 683.667 360.74C686.747 360.74 688.287 362.747 688.287 366.76C688.287 369.84 687.634 373.433 686.327 377.54C685.021 381.647 683.807 384.913 682.687 387.34C681.567 389.673 678.767 395.18 674.287 403.86C669.901 412.447 666.26 420.007 663.367 426.54C660.194 434.38 658.607 442.36 658.607 450.48C658.607 454.773 658.981 457.993 659.727 460.14C660.474 462.287 660.847 463.5 660.847 463.78Z" fill="#402525"/>
<path d="M737.241 383L736.961 400.92C736.961 413.333 738.315 420.8 741.021 423.32C741.395 423.693 741.581 424.113 741.581 424.58C741.581 425.98 738.548 426.68 732.481 426.68C726.508 426.68 723.335 424.907 722.961 421.36C722.868 420.52 722.821 418.793 722.821 416.18L723.381 393.78C723.381 393.127 723.008 392.8 722.261 392.8C717.781 392.8 713.581 394.06 709.661 396.58C705.741 399.1 703.781 402.32 703.781 406.24C703.781 408.293 704.341 410.02 705.461 411.42C706.581 412.82 707.935 413.52 709.521 413.52C711.201 413.52 712.555 413.193 713.581 412.54C714.701 411.887 715.355 411.513 715.541 411.42C717.128 411.607 717.921 413.287 717.921 416.46C717.921 419.54 716.475 422.06 713.581 424.02C710.688 425.887 707.655 426.82 704.481 426.82C701.308 426.82 698.555 426.26 696.221 425.14C693.981 424.02 692.348 422.76 691.321 421.36C690.295 419.96 689.455 418.373 688.801 416.6C688.148 414.453 687.821 412.587 687.821 411C687.821 404.467 689.875 399.24 693.981 395.32C698.088 391.4 703.361 388.6 709.801 386.92C718.295 385.24 722.728 383.7 723.101 382.3C723.381 381.273 723.521 379.547 723.521 377.12C723.521 372.173 721.001 369.7 715.961 369.7C713.815 369.7 711.901 370.4 710.221 371.8C708.541 373.107 707.701 374.787 707.701 376.84L708.541 380.2C708.355 381.787 706.675 382.72 703.501 383L701.961 383.14C699.161 383.14 696.921 382.44 695.241 381.04C693.655 379.64 692.861 377.773 692.861 375.44C692.861 373.947 693.328 372.313 694.261 370.54C695.288 368.673 696.548 367.18 698.041 366.06C699.535 364.94 701.821 363.96 704.901 363.12C708.075 362.187 711.108 361.72 714.001 361.72C716.895 361.72 719.135 361.813 720.721 362C722.308 362.187 724.455 362.653 727.161 363.4C729.961 364.053 732.248 365.36 734.021 367.32C735.888 369.28 736.868 371.38 736.961 373.62C737.148 375.767 737.241 378.893 737.241 383Z" fill="#402525"/>
<path d="M743.616 370.4L744.036 364.8C744.129 363.96 744.782 363.54 745.996 363.54H750.896L750.336 352.34V351.78C750.336 349.633 751.969 347.58 755.236 345.62C758.502 343.66 761.489 342.68 764.196 342.68C765.036 342.68 765.456 343.053 765.456 343.8V343.94C765.082 346.46 764.709 352.947 764.336 363.4C768.442 363.4 771.056 363.307 772.176 363.12C773.296 362.933 773.902 362.84 773.996 362.84C774.649 362.84 774.976 363.4 774.976 364.52C774.976 365.64 774.462 367.087 773.436 368.86C772.409 370.54 771.289 371.427 770.076 371.52H764.196C764.102 374.693 764.056 380.06 764.056 387.62C764.056 395.087 764.102 401.247 764.196 406.1C764.382 410.953 764.569 414.64 764.756 417.16C764.942 419.587 765.129 421.547 765.316 423.04C765.596 424.533 765.782 425.607 765.876 426.26C766.062 426.913 766.156 427.333 766.156 427.52C766.156 428.453 765.549 428.967 764.336 429.06C760.696 429.06 757.056 428.547 753.416 427.52C749.869 426.493 748.096 424.72 748.096 422.2C750.056 406.52 751.036 389.673 751.036 371.66C748.516 371.66 746.602 371.753 745.296 371.94H745.156C744.316 371.94 743.802 371.427 743.616 370.4Z" fill="#402525"/>
<path d="M788.957 389.44L789.097 392.94C789.097 393.5 789.47 393.78 790.217 393.78C793.204 393.5 795.817 392.753 798.057 391.54C800.297 390.233 801.977 388.787 803.097 387.2C805.337 383.747 806.55 380.76 806.737 378.24L806.877 376.56C806.877 371.52 804.87 369 800.857 369C797.87 369 795.444 370.307 793.577 372.92C790.497 377.027 788.957 382.533 788.957 389.44ZM819.477 408.06C819.477 411.607 818.73 414.733 817.237 417.44C815.837 420.053 814.204 422.013 812.337 423.32C810.564 424.533 808.464 425.513 806.037 426.26C802.957 427.193 800.017 427.66 797.217 427.66C789.377 427.66 783.59 424.72 779.857 418.84C776.124 412.96 774.257 405.493 774.257 396.44C774.257 387.293 776.544 379.173 781.117 372.08C785.784 364.987 792.737 361.44 801.977 361.44C810.377 361.44 816.07 364.38 819.057 370.26C820.27 372.5 820.877 374.647 820.877 376.7C820.877 378.66 820.784 380.247 820.597 381.46C820.41 382.58 819.757 384.307 818.637 386.64C817.517 388.973 816.024 391.073 814.157 392.94C812.29 394.807 809.35 396.58 805.337 398.26C801.324 399.94 796.61 401.06 791.197 401.62C790.45 401.62 790.077 401.947 790.077 402.6C790.077 403.44 790.357 404.7 790.917 406.38C791.57 407.967 792.27 409.32 793.017 410.44C795.07 413.053 798.104 414.36 802.117 414.36C806.13 414.36 809.537 413.053 812.337 410.44C813.83 409.04 815.044 407.313 815.977 405.26C816.35 404.513 816.817 404.14 817.377 404.14C818.03 404.14 818.544 404.653 818.917 405.68C819.29 406.707 819.477 407.5 819.477 408.06Z" fill="#402525"/>
</svg>
