<svg width="300" height="300" viewBox="0 0 300 300" fill="none" xmlns="http://www.w3.org/2000/svg">
<path d="M219.812 253.418V290.125H89.5625V253.418V252.918H89.0625H23.4381C19.8422 252.914 16.3948 251.483 13.8522 248.941C11.3096 246.398 9.87926 242.951 9.875 239.355V65.9183C9.87926 62.3225 11.3096 58.8752 13.8522 56.3326C16.3948 53.79 19.8422 52.3597 23.4381 52.3555H122.972H124.18L123.326 51.5019L81.6991 9.875H106.801L149.135 52.209L149.281 52.3555H149.488H150.804H151.012L151.158 52.209L193.492 9.875H218.594L176.967 51.5019L176.113 52.3555H177.321H276.562C280.158 52.3597 283.605 53.79 286.148 56.3326C288.69 58.8753 290.121 62.3227 290.125 65.9185V239.355C290.121 242.951 288.69 246.398 286.148 248.941C283.605 251.483 280.158 252.914 276.562 252.918H220.312H219.812V253.418ZM201.562 272.375H202.062V271.875V253.418V252.918H201.562H107.812H107.312V253.418V271.875V272.375H107.812H201.562ZM271.875 235.168H272.375V234.668V70.6055V70.1055H271.875H28.125H27.625V70.6055V234.668V235.168H28.125H271.875Z" fill="#D7CCC8" stroke="#D7CCC8"/>
</svg>
