<svg width="300" height="300" viewBox="0 0 300 300" fill="none" xmlns="http://www.w3.org/2000/svg">
<path d="M272.279 74.5255C263.314 78.3927 253.559 81.1759 243.51 82.2599C253.943 76.0617 261.756 66.2696 265.482 54.7208C255.692 60.5447 244.967 64.6285 233.783 66.7911C229.109 61.7939 223.455 57.8128 217.175 55.096C210.895 52.3793 204.122 50.985 197.279 51.0001C169.594 51.0001 147.328 73.4415 147.328 100.981C147.328 104.848 147.797 108.715 148.559 112.436C107.104 110.268 70.1309 90.463 45.5508 60.1407C41.072 67.7906 38.725 76.5009 38.7539 85.3653C38.7539 102.709 47.5723 118.002 61.0195 126.996C53.0949 126.684 45.3557 124.506 38.4316 120.639V121.254C38.4316 145.541 55.5996 165.668 78.4805 170.297C74.1843 171.413 69.7649 171.984 65.3262 171.996C62.0742 171.996 58.998 171.674 55.8926 171.234C62.2207 191.039 80.6484 205.424 102.592 205.893C85.4238 219.34 63.9199 227.25 40.5703 227.25C36.3809 227.25 32.5137 227.104 28.5 226.635C50.6484 240.844 76.9277 249.047 105.229 249.047C197.104 249.047 247.377 172.934 247.377 106.869C247.377 104.701 247.377 102.533 247.23 100.365C256.957 93.2462 265.482 84.4279 272.279 74.5255Z" fill="#D7CCC8"/>
</svg>
