<svg width="300" height="300" viewBox="0 0 300 300" fill="none" xmlns="http://www.w3.org/2000/svg">
<path d="M277.564 69.1821C232.688 -0.00228699 141.065 -20.5706 70.0111 22.4359C0.826717 65.4424 -21.6114 158.935 23.2649 228.119L27.0046 233.729L12.0458 289.824L68.1412 274.865L73.7508 278.605C98.0588 291.694 124.237 299.173 150.415 299.173C178.462 299.173 206.51 291.694 230.818 276.735C300.002 231.859 320.571 140.236 277.564 69.1821V69.1821ZM238.297 213.16C230.818 224.379 221.469 231.859 208.38 233.729C200.9 233.729 191.551 237.468 154.154 222.51C122.367 207.551 96.1889 183.243 77.4905 155.195C66.2714 142.106 60.6618 125.278 58.792 108.449C58.792 93.4901 64.4015 80.4012 73.7508 71.0519C77.4905 67.3122 81.2302 65.4424 84.9698 65.4424H94.3191C98.0588 65.4424 101.798 65.4424 103.668 72.9218C107.408 82.271 116.757 104.709 116.757 106.579C118.627 108.449 118.627 112.189 116.757 114.058C118.627 117.798 116.757 121.538 114.887 123.408C113.018 125.278 111.148 129.017 109.278 130.887C105.538 132.757 103.668 136.497 105.538 140.236C113.018 151.455 122.367 162.674 131.716 172.024C142.935 181.373 154.154 188.852 167.243 194.462C170.983 196.332 174.723 196.332 176.592 192.592C178.462 188.852 187.811 179.503 191.551 175.763C195.291 172.024 197.161 172.024 200.9 173.894L230.818 188.852C234.558 190.722 238.297 192.592 240.167 194.462C242.037 200.071 242.037 207.551 238.297 213.16V213.16Z" fill="#D7CCC8"/>
</svg>
