<svg width="300" height="300" viewBox="0 0 300 300" fill="none" xmlns="http://www.w3.org/2000/svg">
<path d="M102.337 118.75H85.2375L80.0062 155.369L73.5125 118.925H58.15L51.4875 155.369L46.425 118.925H29L43.5688 181.25H58.9375L65.5875 142.838L72.3937 181.25H87.9187L102.337 118.75ZM114.837 137.5H130.512V181.25H114.837V137.5ZM130.462 123.419C130.505 124.471 130.334 125.521 129.96 126.505C129.586 127.49 129.018 128.389 128.288 129.148C127.558 129.908 126.683 130.512 125.714 130.925C124.745 131.337 123.703 131.55 122.65 131.55C121.597 131.55 120.555 131.337 119.586 130.925C118.617 130.512 117.741 129.908 117.012 129.148C116.282 128.389 115.714 127.49 115.34 126.505C114.966 125.521 114.795 124.471 114.837 123.419C114.837 119.069 118.337 115.556 122.65 115.556C126.962 115.556 130.462 119.069 130.462 123.419ZM237.094 100H187.225C187.225 100 152.337 101.206 152.337 136.962V164.062C152.337 164.062 152.969 182.444 133.587 200H238.494C238.494 200 271.087 200 271.087 165.294V134.8C271.087 134.8 269.662 100 237.094 100ZM229.456 133.556H194.137V147.531H225.975V162.181H194.137V181.25H177.337V118.75H229.456V133.556ZM247.65 115.556C251.956 115.556 255.462 119.069 255.462 123.419C255.462 127.75 251.956 131.25 247.65 131.25C243.344 131.25 239.837 127.75 239.837 123.419C239.837 119.069 243.344 115.556 247.65 115.556ZM255.512 181.25H239.837V137.5H255.512V181.25Z" fill="#260101"/>
</svg>
