<svg width="32768" height="11448" viewBox="0 0 32768 11448" fill="none" xmlns="http://www.w3.org/2000/svg">
<path d="M1412.08 7798.74C2460.53 8162.99 3245.63 8409.1 3767.39 8537.08C4294.08 8669.98 4744.46 8736.44 5118.56 8736.44C5497.57 8736.44 5913.51 8650.3 6366.36 8478.02L6403.27 8537.08C5802.76 8950.55 5197.31 9157.29 4586.95 9157.29C3961.82 9157.29 3250.55 8962.86 2453.14 8574C1837.86 8268.82 1456.38 8084.23 1308.71 8020.24C782.028 7783.97 348.867 7663.38 9.2293 7658.46V7584.62H105.214C233.193 7584.62 341.483 7540.32 430.084 7451.72C523.608 7363.12 572.831 7252.37 577.753 7119.47V3029.05C572.831 2901.07 523.608 2792.78 430.084 2704.18C341.483 2610.65 233.193 2563.89 105.214 2563.89H9.2293V2490.06H1626.2V2563.89H1530.21C1402.24 2563.89 1291.48 2610.65 1197.96 2704.18C1104.44 2792.78 1057.68 2901.07 1057.68 3029.05V7289.28C1057.68 7377.89 1062.6 7446.8 1072.44 7496.02C1082.29 7540.32 1114.28 7592 1168.43 7651.07C1222.57 7710.14 1303.79 7759.36 1412.08 7798.74Z" fill="#D7CCC8"/>
<path d="M10931.2 3959.36C10778.6 3777.24 10702.3 3597.57 10702.3 3420.37C10702.3 3238.25 10744.1 3083.19 10827.8 2955.21C10911.5 2822.31 11046.8 2711.56 11233.9 2622.96C11420.9 2529.44 11632.6 2482.68 11868.9 2482.68H14896.1C15048.6 2482.68 15216 2467.91 15398.1 2438.38C15585.2 2408.84 15715.6 2379.31 15789.5 2349.77V3280.09L15715.6 3272.7V3147.18C15715.6 3029.05 15673.8 2928.14 15590.1 2844.46C15506.4 2755.86 15408 2709.1 15294.8 2704.18H13891.9V7126.85C13896.8 7304.05 13975.6 7436.95 14128.2 7525.55C14202 7564.93 14280.8 7584.62 14364.4 7584.62H14460.4V7658.46H12843.5V7584.62H12939.4C13067.4 7584.62 13175.7 7540.32 13264.3 7451.72C13357.8 7363.12 13407.1 7257.29 13412 7134.23V2704.18H11868.9C11475.1 2704.18 11189.6 2829.7 11012.4 3080.73C10918.9 3208.71 10872.1 3344.08 10872.1 3486.82C10872.1 3624.65 10911.5 3769.85 10990.2 3922.44L10931.2 3959.36ZM21585.2 4601.72C21511.3 4601.72 21447.8 4628.3 21394.7 4681.46C21341.5 4731.67 21313.5 4793.69 21310.5 4867.52V7153.43C21310.5 7324.72 21320.8 7487.16 21341.5 7640.74L21350.4 7720.48H21310.5L18896.1 5142.18V7348.35C18896.1 7422.19 18922.7 7485.68 18975.9 7538.84C19029 7589.05 19092.5 7614.15 19166.4 7614.15H19250.5V7658.46H18337.9V7614.15H18422.1C18495.9 7614.15 18559.4 7589.05 18612.6 7538.84C18665.8 7485.68 18692.3 7420.71 18692.3 7343.92V5044.72C18692.3 4864.57 18682 4703.61 18661.3 4561.85L18652.5 4490.97H18696.8L21111.2 7069.26V4871.95C21108.2 4795.16 21080.1 4731.67 21027 4681.46C20973.8 4628.3 20910.3 4601.72 20836.5 4601.72H20752.3V4557.42H21664.9V4601.72H21585.2ZM22143.6 7614.15C22220.4 7614.15 22285.4 7587.57 22338.5 7534.41C22394.6 7478.3 22424.2 7411.85 22427.1 7335.06V4854.23C22427.1 4783.35 22399.1 4724.28 22343 4677.03C22286.8 4626.82 22220.4 4601.72 22143.6 4601.72H22090.4L22086 4557.42H22985.3C23076.9 4557.42 23175.8 4548.56 23282.1 4530.84C23391.4 4513.12 23468.2 4495.4 23512.5 4477.68V5035.86H23468.2V4956.12C23468.2 4885.24 23443.1 4824.7 23392.9 4774.49C23345.6 4724.28 23288 4697.7 23220.1 4694.75H22715.1V6063.64H23556.8C23615.9 6060.68 23666.1 6038.53 23707.4 5997.19C23748.8 5955.84 23769.4 5904.15 23769.4 5842.13V5780.11H23813.7V6480.06H23769.4V6413.61C23769.4 6354.54 23748.8 6304.34 23707.4 6262.99C23669 6221.64 23620.3 6199.49 23561.2 6196.54H22715.1V7521.12H23658.7C23877.2 7521.12 24044.1 7472.39 24159.3 7374.93C24274.5 7277.47 24370.4 7132.76 24447.2 6940.79H24491.5L24234.6 7658.46H22086V7614.15H22143.6ZM25618.6 7742.63C26247.7 7961.18 26718.8 8108.84 27031.8 8185.63C27347.8 8265.37 27618.1 8305.24 27842.5 8305.24C28069.9 8305.24 28319.5 8253.56 28591.2 8150.19L28613.3 8185.63C28253 8433.71 27889.8 8557.76 27523.6 8557.76C27148.5 8557.76 26721.7 8441.1 26243.3 8207.78C25874.1 8024.67 25645.2 7913.92 25556.6 7875.53C25240.6 7733.77 24980.7 7661.41 24776.9 7658.46V7614.15H24834.5C24911.3 7614.15 24976.3 7587.57 25029.4 7534.41C25085.5 7481.25 25115.1 7414.8 25118 7335.06V4880.81C25115.1 4804.02 25085.5 4739.05 25029.4 4685.89C24976.3 4629.78 24911.3 4601.72 24834.5 4601.72H24776.9V4557.42H25747.1V4601.72H25689.5C25612.7 4601.72 25546.3 4629.78 25490.2 4685.89C25434 4739.05 25406 4804.02 25406 4880.81V7436.95C25406 7490.11 25408.9 7531.46 25414.8 7560.99C25420.8 7587.57 25440 7618.58 25472.4 7654.03C25504.9 7689.47 25553.7 7719 25618.6 7742.63ZM26612.6 7614.15C26689.4 7614.15 26754.4 7587.57 26807.5 7534.41C26863.6 7478.3 26893.2 7411.85 26896.1 7335.06V4854.23C26896.1 4783.35 26868.1 4724.28 26811.9 4677.03C26755.8 4626.82 26689.4 4601.72 26612.6 4601.72H26559.4L26555 4557.42H27454.3C27545.9 4557.42 27644.8 4548.56 27751.1 4530.84C27860.4 4513.12 27937.2 4495.4 27981.5 4477.68V5035.86H27937.2V4956.12C27937.2 4885.24 27912.1 4824.7 27861.9 4774.49C27814.6 4724.28 27757 4697.7 27689.1 4694.75H27184.1V6063.64H28025.8C28084.8 6060.68 28135.1 6038.53 28176.4 5997.19C28217.7 5955.84 28238.4 5904.15 28238.4 5842.13V5780.11H28282.7V6480.06H28238.4V6413.61C28238.4 6354.54 28217.7 6304.34 28176.4 6262.99C28138 6221.64 28089.3 6199.49 28030.2 6196.54H27184.1V7521.12H28127.7C28346.2 7521.12 28513.1 7472.39 28628.3 7374.93C28743.4 7277.47 28839.4 7132.76 28916.2 6940.79H28960.5L28703.6 7658.46H26555V7614.15H26612.6ZM29858.7 5694.46C29602.8 6029.18 29474.8 6390.97 29474.8 6779.83C29474.8 7242.52 29669.2 7601.85 30058.1 7857.81C30284.5 8010.4 30540.5 8086.69 30826 8086.69C31116.4 8086.69 31367.4 8030.09 31579.1 7916.88C31977.8 7710.14 32201.7 7363.12 32251 6875.81C32255.9 6841.36 32258.3 6806.9 32258.3 6772.44C32258.3 6590.32 32206.7 6393.43 32103.3 6181.77C32004.9 5970.11 31842.4 5775.68 31616 5598.48L30287 4550.03C29996.6 4323.61 29851.4 4030.73 29851.4 3671.41C29851.4 3312.08 29967 3009.36 30198.4 2763.25C30429.7 2512.21 30742.3 2386.69 31136.1 2386.69C31333 2386.69 31547.1 2411.3 31778.4 2460.53H32073.8L32088.5 3368.69H32014.7C32009.8 3132.42 31923.6 2947.83 31756.3 2814.93C31593.8 2677.11 31387.1 2608.19 31136.1 2608.19C30890 2608.19 30683.2 2691.87 30515.9 2859.23C30348.5 3021.67 30264.8 3233.32 30264.8 3494.2C30264.8 3750.16 30373.1 3964.28 30589.7 4136.56L31955.6 5214.54C32497.1 5642.78 32767.8 6159.62 32767.8 6765.06C32767.8 7217.91 32588.1 7606.77 32228.8 7931.64C31918.7 8212.21 31505.2 8352.5 30988.4 8352.5C30673.4 8352.5 30392.8 8293.43 30146.7 8175.3C29684 7958.71 29405.9 7589.54 29312.4 7067.78C29297.6 6989.03 29290.2 6890.58 29290.2 6772.44C29290.2 6649.39 29324.7 6484.49 29393.6 6277.76C29462.5 6066.1 29595.4 5854.44 29792.3 5642.78L29858.7 5694.46Z" fill="#D7CCC8"/>
<path d="M18117.4 11447.6C17922.5 11447.6 17758.1 11402.3 17624.2 11311.8C17490.3 11221.2 17388.9 11095.2 17320 10933.7C17253.1 10770.3 17219.6 10579.3 17219.6 10360.8C17219.6 10148.1 17255.1 9961.1 17325.9 9799.65C17398.8 9636.23 17505.1 9509.23 17644.9 9418.66C17786.7 9326.12 17960.9 9279.85 18167.7 9279.85C18301.5 9279.85 18412.8 9294.62 18501.4 9324.16C18590 9351.72 18655.9 9391.1 18699.3 9442.29C18742.6 9491.51 18764.2 9547.63 18764.2 9610.63C18764.2 9673.64 18739.6 9723.84 18690.4 9761.25C18641.2 9798.66 18580.1 9817.37 18507.3 9817.37C18507.3 9756.33 18496.5 9697.26 18474.8 9640.17C18453.1 9581.1 18416.7 9532.86 18365.5 9495.45C18316.3 9456.07 18248.4 9436.38 18161.7 9436.38C18014.1 9436.38 17895 9472.81 17804.4 9545.66C17713.8 9616.54 17647.9 9720.89 17606.5 9858.72C17567.1 9996.54 17547.4 10163.9 17547.4 10360.8C17547.4 10536 17568.1 10691.6 17609.5 10827.4C17652.8 10961.3 17719.7 11065.7 17810.3 11140.5C17900.9 11215.3 18018 11252.7 18161.7 11252.7C18258.2 11252.7 18339.9 11240.9 18406.9 11217.3C18473.8 11193.6 18529.9 11163.1 18575.2 11125.7C18622.5 11086.3 18662.8 11045 18696.3 11001.7C18712.1 11011.5 18724.9 11026.3 18734.7 11046C18746.5 11063.7 18752.4 11087.3 18752.4 11116.9C18752.4 11154.3 18739.6 11192.7 18714 11232C18688.4 11269.4 18650 11304.9 18598.8 11338.4C18547.7 11369.9 18481.7 11396.4 18401 11418.1C18322.2 11437.8 18227.7 11447.6 18117.4 11447.6ZM18865.4 11418.1V11294.1H18921.5C18960.9 11294.1 18992.4 11288.1 19016 11276.3C19039.7 11264.5 19061.3 11241.9 19081 11208.4C19100.7 11174.9 19122.4 11126.7 19146 11063.7L19801.6 9309.39H20032L20699.4 11137.5C20715.2 11178.9 20731.9 11211.4 20749.7 11235C20767.4 11256.6 20789 11272.4 20814.6 11282.2C20840.2 11290.1 20871.7 11294.1 20909.1 11294.1H20947.5V11418.1H20135.4V11294.1H20203.3C20262.4 11294.1 20306.7 11283.2 20336.2 11261.6C20365.7 11237.9 20380.5 11201.5 20380.5 11152.3C20380.5 11140.5 20379.5 11129.6 20377.5 11119.8C20375.6 11108 20372.6 11096.2 20368.7 11084.4C20366.7 11070.6 20362.8 11056.8 20356.9 11043L20238.7 10712.2H19462L19349.8 11022.3C19343.9 11038.1 19338.9 11053.8 19335 11069.6C19331.1 11085.3 19328.1 11100.1 19326.1 11113.9C19324.2 11125.7 19323.2 11137.5 19323.2 11149.3C19323.2 11198.6 19338.9 11235 19370.4 11258.6C19403.9 11282.2 19453.1 11294.1 19518.1 11294.1H19586V11418.1H18865.4ZM19518.1 10564.6H20185.6L20002.5 10047.7C19982.8 9988.66 19963.1 9932.55 19943.4 9879.39C19925.7 9826.23 19908.9 9775.04 19893.2 9725.81C19879.4 9676.59 19866.6 9628.35 19854.8 9581.1C19846.9 9616.54 19838 9651 19828.2 9684.47C19820.3 9717.94 19810.5 9752.39 19798.7 9787.83C19788.8 9821.31 19777 9857.73 19763.2 9897.11C19751.4 9934.52 19736.7 9975.87 19718.9 10021.2L19518.1 10564.6ZM21060 11418.1V11294.1H21098.4C21141.7 11294.1 21181.1 11290.1 21216.5 11282.2C21253.9 11272.4 21283.5 11253.7 21305.1 11226.1C21328.7 11196.6 21340.6 11153.3 21340.6 11096.2V9634.26C21340.6 9575.19 21328.7 9531.88 21305.1 9504.31C21283.5 9474.78 21253.9 9456.07 21216.5 9448.2C21181.1 9438.35 21141.7 9433.43 21098.4 9433.43H21060V9309.39H22548.5L22563.3 9826.23H22409.7L22394.9 9699.23C22391 9653.95 22379.2 9613.59 22359.5 9578.15C22339.8 9540.74 22311.2 9511.2 22273.8 9489.54C22236.4 9467.89 22186.2 9457.06 22123.2 9457.06H21638.9V10310.6H22350.6V10455.3H21638.9V11081.4C21638.9 11142.4 21649.7 11188.7 21671.3 11220.2C21693 11249.8 21722.5 11269.4 21759.9 11279.3C21797.3 11289.1 21837.7 11294.1 21881 11294.1H21978.5V11418.1H21060ZM22482.1 11418.1V11294.1H22538.2C22577.6 11294.1 22609.1 11288.1 22632.8 11276.3C22656.4 11264.5 22678 11241.9 22697.7 11208.4C22717.4 11174.9 22739.1 11126.7 22762.7 11063.7L23418.3 9309.39H23648.7L24316.2 11137.5C24331.9 11178.9 24348.7 11211.4 24366.4 11235C24384.1 11256.6 24405.8 11272.4 24431.4 11282.2C24457 11290.1 24488.5 11294.1 24525.9 11294.1H24564.3V11418.1H23752.1V11294.1H23820C23879.1 11294.1 23923.4 11283.2 23952.9 11261.6C23982.4 11237.9 23997.2 11201.5 23997.2 11152.3C23997.2 11140.5 23996.2 11129.6 23994.3 11119.8C23992.3 11108 23989.3 11096.2 23985.4 11084.4C23983.4 11070.6 23979.5 11056.8 23973.6 11043L23855.4 10712.2H23078.7L22966.5 11022.3C22960.6 11038.1 22955.7 11053.8 22951.7 11069.6C22947.8 11085.3 22944.8 11100.1 22942.9 11113.9C22940.9 11125.7 22939.9 11137.5 22939.9 11149.3C22939.9 11198.6 22955.7 11235 22987.2 11258.6C23020.6 11282.2 23069.9 11294.1 23134.8 11294.1H23202.8V11418.1H22482.1ZM23134.8 10564.6H23802.3L23619.2 10047.7C23599.5 9988.66 23579.8 9932.55 23560.1 9879.39C23542.4 9826.23 23525.7 9775.04 23509.9 9725.81C23496.1 9676.59 23483.3 9628.35 23471.5 9581.1C23463.6 9616.54 23454.8 9651 23444.9 9684.47C23437.1 9717.94 23427.2 9752.39 23415.4 9787.83C23405.6 9821.31 23393.7 9857.73 23380 9897.11C23368.1 9934.52 23353.4 9975.87 23335.7 10021.2L23134.8 10564.6ZM24826.4 11418.1V11294.1H24894.3C24937.7 11294.1 24977 11290.1 25012.5 11282.2C25049.9 11272.4 25079.4 11253.7 25101.1 11226.1C25124.7 11196.6 25136.5 11153.3 25136.5 11096.2V10538L24590.1 9589.96C24568.5 9552.55 24547.8 9523.02 24528.1 9501.36C24510.4 9477.73 24489.7 9461 24466.1 9451.15C24442.5 9439.34 24413.9 9433.43 24380.5 9433.43H24342.1V9309.39H25154.2V9433.43H25045C24991.8 9433.43 24956.4 9443.27 24938.6 9462.96C24922.9 9480.68 24915 9502.34 24915 9527.94C24915 9555.5 24920.9 9583.07 24932.7 9610.63C24944.5 9638.2 24956.4 9662.81 24968.2 9684.47L25186.7 10080.2C25204.4 10109.8 25220.2 10140.3 25234 10171.8C25247.8 10201.3 25260.6 10230.8 25272.4 10260.4C25286.2 10287.9 25298 10315.5 25307.8 10343.1C25317.7 10368.7 25326.5 10393.3 25334.4 10416.9C25352.1 10375.6 25377.7 10324.4 25411.2 10263.3C25444.7 10202.3 25478.1 10141.3 25511.6 10080.2L25700.6 9740.58C25720.3 9707.11 25734.1 9675.61 25742 9646.07C25749.8 9614.57 25753.8 9587.01 25753.8 9563.38C25753.8 9520.06 25738 9487.58 25706.5 9465.92C25677 9444.26 25633.7 9433.43 25576.6 9433.43H25490.9V9309.39H26211.5V9433.43H26176.1C26148.5 9433.43 26122 9440.32 26096.4 9454.1C26072.7 9467.89 26047.1 9491.51 26019.6 9524.98C25994 9558.46 25964.4 9604.73 25931 9663.79L25434.8 10538V11081.4C25434.8 11142.4 25445.6 11188.7 25467.3 11220.2C25489 11249.8 25518.5 11269.4 25555.9 11279.3C25593.3 11289.1 25633.7 11294.1 25677 11294.1H25744.9V11418.1H24826.4ZM25995 11418.1V11294.1H26051.1C26090.5 11294.1 26122 11288.1 26145.6 11276.3C26169.3 11264.5 26190.9 11241.9 26210.6 11208.4C26230.3 11174.9 26252 11126.7 26275.6 11063.7L26931.2 9309.39H27161.6L27829.1 11137.5C27844.8 11178.9 27861.6 11211.4 27879.3 11235C27897 11256.6 27918.7 11272.4 27944.2 11282.2C27969.8 11290.1 28001.3 11294.1 28038.8 11294.1H28077.2V11418.1H27265V11294.1H27332.9C27392 11294.1 27436.3 11283.2 27465.8 11261.6C27495.3 11237.9 27510.1 11201.5 27510.1 11152.3C27510.1 11140.5 27509.1 11129.6 27507.1 11119.8C27505.2 11108 27502.2 11096.2 27498.3 11084.4C27496.3 11070.6 27492.4 11056.8 27486.5 11043L27368.3 10712.2H26591.6L26479.4 11022.3C26473.5 11038.1 26468.5 11053.8 26464.6 11069.6C26460.7 11085.3 26457.7 11100.1 26455.8 11113.9C26453.8 11125.7 26452.8 11137.5 26452.8 11149.3C26452.8 11198.6 26468.5 11235 26500.1 11258.6C26533.5 11282.2 26582.7 11294.1 26647.7 11294.1H26715.6V11418.1H25995ZM26647.7 10564.6H27315.2L27132.1 10047.7C27112.4 9988.66 27092.7 9932.55 27073 9879.39C27055.3 9826.23 27038.5 9775.04 27022.8 9725.81C27009 9676.59 26996.2 9628.35 26984.4 9581.1C26976.5 9616.54 26967.7 9651 26957.8 9684.47C26949.9 9717.94 26940.1 9752.39 26928.3 9787.83C26918.4 9821.31 26906.6 9857.73 26892.8 9897.11C26881 9934.52 26866.3 9975.87 26848.5 10021.2L26647.7 10564.6ZM28344.5 11418.1V11294.1H28412.4C28455.7 11294.1 28495.1 11290.1 28530.5 11282.2C28567.9 11272.4 28597.5 11253.7 28619.1 11226.1C28642.7 11196.6 28654.6 11153.3 28654.6 11096.2V9457.06H28371C28313.9 9457.06 28268.6 9468.87 28235.2 9492.5C28201.7 9514.16 28177.1 9543.69 28161.3 9581.1C28145.6 9616.54 28134.8 9655.92 28128.9 9699.23L28114.1 9826.23H27960.5L27975.3 9309.39H29638L29652.8 9826.23H29499.2L29484.5 9699.23C29480.5 9655.92 29469.7 9616.54 29452 9581.1C29436.2 9543.69 29411.6 9514.16 29378.1 9492.5C29344.7 9468.87 29298.4 9457.06 29239.3 9457.06H28952.8V11081.4C28952.8 11142.4 28963.7 11188.7 28985.3 11220.2C29007 11249.8 29036.5 11269.4 29073.9 11279.3C29111.3 11289.1 29151.7 11294.1 29195 11294.1H29263V11418.1H28344.5ZM29824.9 11418.1V11294.1H29863.3C29906.6 11294.1 29946 11290.1 29981.5 11282.2C30018.9 11272.4 30048.4 11253.7 30070.1 11226.1C30093.7 11196.6 30105.5 11153.3 30105.5 11096.2V9646.07C30105.5 9583.07 30094.7 9536.8 30073 9507.26C30051.3 9477.73 30021.8 9458.04 29984.4 9448.2C29949 9438.35 29908.6 9433.43 29863.3 9433.43H29824.9V9309.39H31313.4L31328.2 9826.23H31174.6L31159.8 9699.23C31155.9 9655.92 31144.1 9616.54 31124.4 9581.1C31106.7 9543.69 31079.1 9514.16 31041.7 9492.5C31006.3 9468.87 30959 9457.06 30899.9 9457.06H30403.8V10242.7H31115.5V10387.4H30403.8V11270.4H30973.8C31036.8 11270.4 31087 11259.6 31124.4 11237.9C31163.8 11214.3 31193.3 11184.8 31213 11149.3C31234.7 11111.9 31248.4 11071.6 31254.4 11028.2L31275 10901.3H31428.6L31407.9 11418.1H29824.9Z" fill="#D7CCC8"/>
<path d="M7.39345e-06 2141.19V2017.15H38.3938C83.6788 2017.15 124.042 2012.23 159.482 2002.38C196.891 1992.54 226.425 1972.85 248.083 1943.32C269.741 1911.81 280.57 1865.54 280.57 1804.51V357.358C280.57 298.29 268.757 254.974 245.13 227.409C223.472 197.876 193.938 179.171 156.529 171.295C121.088 161.451 81.7099 156.528 38.3938 156.528H7.39345e-06V32.4869H859.431V156.528H821.037C777.721 156.528 737.358 161.451 699.949 171.295C662.539 181.14 633.005 200.829 611.347 230.363C589.689 259.896 578.86 306.166 578.86 369.171V965.752H1538.71V369.171C1538.71 306.166 1527.88 259.896 1506.22 230.363C1484.56 200.829 1455.03 181.14 1417.62 171.295C1382.18 161.451 1341.81 156.528 1296.53 156.528H1258.14V32.4869H2117.57V156.528H2079.17C2035.86 156.528 1995.49 161.451 1958.08 171.295C1920.67 181.14 1891.14 200.829 1869.48 230.363C1847.82 259.896 1837 306.166 1837 369.171V1819.28C1837 1876.37 1847.82 1919.69 1869.48 1949.22C1893.11 1976.79 1922.64 1995.49 1958.08 2005.34C1995.49 2013.21 2035.86 2017.15 2079.17 2017.15H2117.57V2141.19H1258.14V2017.15H1296.53C1341.81 2017.15 1382.18 2012.23 1417.62 2002.38C1455.03 1992.54 1484.56 1972.85 1506.22 1943.32C1527.88 1911.81 1538.71 1865.54 1538.71 1804.51V1113.42H578.86V1804.51C578.86 1865.54 589.689 1911.81 611.347 1943.32C633.005 1972.85 662.539 1992.54 699.949 2002.38C737.358 2012.23 777.721 2017.15 821.037 2017.15H859.431V2141.19H7.39345e-06ZM3325.4 2170.73C3116.7 2170.73 2943.43 2125.44 2805.61 2034.87C2667.78 1944.3 2564.42 1817.31 2495.5 1653.89C2428.56 1490.47 2395.09 1299.48 2395.09 1080.93C2395.09 862.384 2428.56 672.384 2495.5 510.933C2564.42 349.482 2667.78 224.456 2805.61 135.855C2945.4 45.2849 3119.65 -7.04138e-05 3328.35 -7.04138e-05C3527.21 -7.04138e-05 3694.57 45.2849 3830.43 135.855C3968.25 224.456 4072.6 350.466 4143.48 513.886C4216.33 675.337 4252.76 865.337 4252.76 1083.89C4252.76 1302.44 4216.33 1493.42 4143.48 1656.84C4072.6 1818.29 3968.25 1944.3 3830.43 2034.87C3692.6 2125.44 3524.26 2170.73 3325.4 2170.73ZM3325.4 2011.24C3435.66 2011.24 3528.2 1990.57 3603.02 1949.22C3679.81 1907.88 3741.83 1847.82 3789.08 1769.07C3836.33 1688.34 3870.79 1590.88 3892.45 1476.68C3914.11 1360.52 3924.94 1229.59 3924.94 1083.89C3924.94 938.187 3914.11 808.239 3892.45 694.042C3870.79 579.845 3836.33 483.368 3789.08 404.612C3743.8 323.886 3682.76 262.85 3605.97 221.503C3531.15 180.155 3438.61 159.482 3328.35 159.482C3218.1 159.482 3124.57 180.155 3047.78 221.503C2971 262.85 2907.99 323.886 2858.77 404.612C2811.52 483.368 2777.06 579.845 2755.4 694.042C2733.74 808.239 2722.91 938.187 2722.91 1083.89C2722.91 1229.59 2733.74 1360.52 2755.4 1476.68C2777.06 1590.88 2811.52 1688.34 2858.77 1769.07C2907.99 1847.82 2971 1907.88 3047.78 1949.22C3124.57 1990.57 3217.11 2011.24 3325.4 2011.24ZM4806.98 2141.19V2017.15H4874.9C4918.22 2017.15 4957.6 2013.21 4993.04 2005.34C5030.45 1995.49 5059.98 1976.79 5081.64 1949.22C5105.27 1919.69 5117.08 1876.37 5117.08 1819.28V180.155H4833.56C4776.46 180.155 4731.17 191.969 4697.7 215.596C4664.23 237.254 4639.62 266.788 4623.87 304.197C4608.12 339.637 4597.29 379.016 4591.38 422.332L4576.61 549.327H4423.04L4437.81 32.4869H6100.55L6115.32 549.327H5961.74L5946.98 422.332C5943.04 379.016 5932.21 339.637 5914.49 304.197C5898.74 266.788 5874.13 237.254 5840.66 215.596C5807.19 191.969 5760.92 180.155 5701.85 180.155H5415.37V1804.51C5415.37 1865.54 5426.2 1911.81 5447.86 1943.32C5469.52 1972.85 5499.05 1992.54 5536.46 2002.38C5573.87 2012.23 5614.23 2017.15 5657.55 2017.15H5725.48V2141.19H4806.98ZM6287.45 2141.19V2017.15H6325.84C6369.16 2017.15 6408.53 2013.21 6443.97 2005.34C6481.38 1995.49 6510.92 1976.79 6532.58 1949.22C6556.2 1919.69 6568.02 1876.37 6568.02 1819.28V369.171C6568.02 306.166 6557.19 259.896 6535.53 230.363C6513.87 200.829 6484.34 181.14 6446.93 171.295C6411.49 161.451 6371.12 156.528 6325.84 156.528H6287.45V32.4869H7775.94L7790.71 549.327H7637.14L7622.37 422.332C7618.43 379.016 7606.62 339.637 7586.93 304.197C7569.21 266.788 7541.64 237.254 7504.23 215.596C7468.79 191.969 7421.54 180.155 7362.47 180.155H6866.31V965.752H7578.07V1110.47H6866.31V1993.52H7436.31C7499.31 1993.52 7549.52 1982.7 7586.93 1961.04C7626.31 1937.41 7655.84 1907.88 7675.53 1872.44C7697.19 1835.03 7710.97 1794.66 7716.88 1751.35L7737.55 1624.35H7891.13L7870.45 2141.19H6287.45ZM8127.53 2141.19V2017.15H8165.93C8211.21 2017.15 8251.58 2012.23 8287.02 2002.38C8324.42 1992.54 8353.96 1972.85 8375.62 1943.32C8397.27 1911.81 8408.1 1865.54 8408.1 1804.51V369.171C8408.1 306.166 8397.27 259.896 8375.62 230.363C8353.96 200.829 8324.42 181.14 8287.02 171.295C8251.58 161.451 8211.21 156.528 8165.93 156.528H8127.53V32.4869H8986.96V156.528H8948.57C8905.25 156.528 8864.89 161.451 8827.48 171.295C8792.04 179.171 8762.51 197.876 8738.88 227.409C8717.22 254.974 8706.39 298.29 8706.39 357.358V1993.52H9288.21C9347.28 1993.52 9394.53 1980.73 9429.97 1955.13C9467.38 1927.57 9494.94 1893.11 9512.66 1851.76C9530.38 1810.42 9542.2 1769.07 9548.1 1727.72L9577.64 1506.22H9731.21L9710.54 2141.19H8127.53Z" fill="#D7CCC8"/>
<path d="M6246.01 5759.07C5990.05 6093.78 5862.07 6455.57 5862.07 6844.43C5862.07 7307.13 6056.5 7666.45 6445.36 7922.41C6671.78 8075 6927.74 8151.3 7213.24 8151.3C7503.65 8151.3 7754.69 8094.69 7966.34 7981.48C8365.05 7774.74 8589.01 7427.72 8638.24 6940.42C8643.16 6905.96 8645.62 6871.51 8645.62 6837.05C8645.62 6654.93 8593.94 6458.03 8490.57 6246.38C8392.12 6034.72 8229.69 5840.29 8003.26 5663.09L6674.25 4614.64C6383.83 4388.21 6238.62 4095.34 6238.62 3736.01C6238.62 3376.69 6354.3 3073.96 6585.64 2827.85C6816.99 2576.81 7129.56 2451.3 7523.34 2451.3C7720.23 2451.3 7934.35 2475.91 8165.7 2525.13H8461.03L8475.8 3433.29H8401.97C8397.04 3197.02 8310.9 3012.44 8143.55 2879.53C7981.11 2741.71 7774.38 2672.8 7523.34 2672.8C7277.22 2672.8 7070.49 2756.48 6903.13 2923.84C6735.77 3086.27 6652.09 3297.93 6652.09 3558.81C6652.09 3814.77 6760.39 4028.89 6976.97 4201.17L8342.9 5279.15C8884.35 5707.39 9155.08 6224.23 9155.08 6829.67C9155.08 7282.52 8975.41 7671.38 8616.09 7996.25C8305.98 8276.82 7892.51 8417.1 7375.67 8417.1C7060.64 8417.1 6780.07 8358.03 6533.96 8239.9C6071.27 8023.32 5793.16 7654.15 5699.63 7132.39C5684.87 7053.63 5677.48 6955.18 5677.48 6837.05C5677.48 6713.99 5711.94 6549.1 5780.85 6342.36C5849.76 6130.7 5982.66 5919.04 6179.56 5707.39L6246.01 5759.07Z" fill="#D7CCC8"/>
<path d="M15406.5 7290.35C14941.7 6210.54 14925.6 5583 15406.5 4417.65C16226.5 4114.15 16711.4 4133.31 17609.3 4417.65C18064.5 5583.01 18049.2 6210.52 17609.3 7290.35H15406.5Z" fill="#D7CCC8"/>
<ellipse cx="16509.1" cy="4466.87" rx="1126.19" ry="392.325" fill="#D7CCC8"/>
<ellipse cx="16498.1" cy="7266.29" rx="1126.19" ry="392.325" fill="#D7CCC8"/>
<ellipse cx="16498.5" cy="4485.69" rx="1012.01" ry="288.44" fill="#670F22"/>
<path d="M2239.88 7217.33C1682.91 5923.41 1663.54 5171.44 2239.88 3775.03C3222.48 3411.34 3803.47 3434.31 4879.44 3775.03C5424.9 5171.46 5406.57 5923.39 4879.44 7217.33H2239.88Z" fill="#D7CCC8"/>
<ellipse cx="3561.08" cy="3834" rx="1349.49" ry="470.116" fill="#D7CCC8"/>
<ellipse cx="3547.89" cy="7188.5" rx="1349.49" ry="470.116" fill="#D7CCC8"/>
<ellipse cx="3548.38" cy="3856.56" rx="1212.67" ry="345.632" fill="#670F22"/>
</svg>
